<svg xmlns="http://www.w3.org/2000/svg" xmlns:xlink="http://www.w3.org/1999/xlink" preserveAspectRatio="xMidYMid" width="30" height="30" viewBox="0 0 30 30">
  <defs>
    <style>
      .cls-1 {
        fill: #1dc8cc;
        fill-rule: evenodd;
      }
    </style>
  </defs>
  <path d="M27.581,30.000 L19.839,30.000 C18.505,30.000 17.419,28.915 17.419,27.581 L17.419,23.710 C17.419,22.376 18.505,21.290 19.839,21.290 L23.710,21.290 L23.710,18.934 L27.243,21.290 L27.581,21.290 C28.915,21.290 30.000,22.376 30.000,23.710 L30.000,27.581 C30.000,28.915 28.915,30.000 27.581,30.000 ZM29.032,23.710 C29.032,22.909 28.381,22.258 27.581,22.258 L26.950,22.258 L24.677,20.743 L24.677,22.258 L19.839,22.258 C19.038,22.258 18.387,22.909 18.387,23.710 L18.387,27.581 C18.387,28.381 19.038,29.032 19.839,29.032 L27.581,29.032 C28.381,29.032 29.032,28.381 29.032,27.581 L29.032,23.710 ZM25.838,26.842 L26.378,27.165 L25.880,27.995 L25.340,27.672 C24.894,27.404 24.511,27.056 24.194,26.659 L24.194,28.065 L23.226,28.065 L23.226,26.659 C22.908,27.056 22.525,27.404 22.079,27.672 L21.539,27.995 L21.041,27.165 L21.581,26.842 C22.232,26.451 22.722,25.852 22.991,25.161 L21.290,25.161 L21.290,24.194 L23.209,24.194 C23.216,24.108 23.226,24.024 23.226,23.938 L23.226,23.226 L24.194,23.226 L24.194,23.938 C24.194,24.024 24.204,24.108 24.210,24.194 L26.129,24.194 L26.129,25.161 L24.428,25.161 L24.428,25.161 C24.698,25.852 25.187,26.451 25.838,26.842 ZM27.581,11.613 L27.243,11.613 L23.710,13.969 L23.710,11.613 L21.243,11.613 C21.213,11.947 21.167,12.278 21.105,12.607 C21.194,12.594 21.282,12.581 21.373,12.581 C22.395,12.581 23.226,13.411 23.226,14.433 C23.226,14.928 23.033,15.393 22.683,15.743 L15.259,23.167 C15.092,23.334 15.000,23.556 15.000,23.792 L15.000,30.000 L3.871,30.000 L3.871,24.677 C3.871,22.865 4.783,21.263 6.171,20.301 C2.444,18.573 -0.000,14.815 -0.000,10.645 C-0.000,4.775 4.775,-0.000 10.645,-0.000 C12.883,-0.000 15.070,0.720 16.875,2.024 C17.311,1.387 18.043,0.968 18.871,0.968 L27.581,0.968 C28.915,0.968 30.000,2.053 30.000,3.387 L30.000,9.194 C30.000,10.528 28.915,11.613 27.581,11.613 ZM4.839,24.677 L4.839,29.032 L6.290,29.032 L6.290,23.226 L7.258,23.226 L7.258,29.032 L14.032,29.032 L14.032,23.792 C14.032,23.298 14.225,22.833 14.575,22.483 L21.999,15.059 C22.166,14.892 22.258,14.670 22.258,14.433 C22.258,13.945 21.861,13.548 21.373,13.548 C21.137,13.548 20.915,13.640 20.748,13.807 L16.455,18.100 C15.352,19.203 13.894,19.932 12.350,20.153 L11.801,20.229 L12.107,24.809 L10.645,27.001 L9.184,24.809 L9.483,20.323 L9.194,20.323 C6.793,20.323 4.839,22.276 4.839,24.677 ZM6.301,11.129 C6.350,12.474 6.601,13.772 7.048,15.000 L7.059,15.000 C7.635,13.583 9.024,12.581 10.645,12.581 C12.266,12.581 13.655,13.583 14.231,15.000 L14.235,15.000 C14.682,13.772 14.930,12.474 14.978,11.129 L6.301,11.129 ZM14.978,10.161 C14.925,8.702 14.644,7.409 14.234,6.290 L7.056,6.290 C6.646,7.409 6.365,8.702 6.312,10.161 L14.978,10.161 ZM10.645,19.355 C12.246,19.355 13.548,18.053 13.548,16.452 C13.548,14.850 12.246,13.548 10.645,13.548 C9.044,13.548 7.742,14.850 7.742,16.452 C7.742,18.053 9.044,19.355 10.645,19.355 ZM10.171,24.545 L10.645,25.257 L11.119,24.546 L10.837,20.323 L10.453,20.323 L10.171,24.545 ZM14.483,15.968 C14.503,16.126 14.516,16.288 14.516,16.452 C14.516,17.323 14.223,18.125 13.736,18.773 C14.493,18.457 15.189,17.998 15.771,17.416 L17.219,15.968 L14.483,15.968 ZM7.280,19.717 C7.576,19.602 7.884,19.512 8.202,19.451 C7.332,18.740 6.774,17.660 6.774,16.452 C6.774,16.288 6.788,16.126 6.808,15.968 L2.573,15.968 C3.683,17.651 5.310,18.985 7.280,19.717 ZM2.006,15.000 L6.021,15.000 C5.608,13.764 5.378,12.467 5.333,11.129 L0.987,11.129 C1.056,12.501 1.408,13.816 2.006,15.000 ZM0.992,10.161 L5.333,10.161 C5.381,8.713 5.638,7.424 6.015,6.290 L2.015,6.290 C1.420,7.465 1.062,8.774 0.992,10.161 ZM2.571,5.323 L6.378,5.323 C7.211,3.350 8.367,1.941 9.223,1.084 C6.450,1.496 4.056,3.079 2.571,5.323 ZM10.645,1.101 C10.035,1.610 8.533,3.024 7.461,5.323 L13.830,5.323 C12.757,3.024 11.255,1.610 10.645,1.101 ZM12.063,1.080 C12.920,1.936 14.079,3.346 14.912,5.323 L16.452,5.323 L16.452,3.387 C16.452,3.236 16.470,3.090 16.496,2.947 C15.199,1.961 13.670,1.319 12.063,1.080 ZM16.452,9.194 L16.452,6.290 L15.275,6.290 C15.652,7.424 15.910,8.713 15.957,10.161 L16.657,10.161 C16.526,9.864 16.452,9.538 16.452,9.194 ZM15.957,11.129 C15.912,12.467 15.683,13.765 15.270,15.000 L18.187,15.000 L19.976,13.211 C20.119,12.689 20.220,12.154 20.273,11.613 L18.870,11.613 C18.331,11.613 17.837,11.429 17.434,11.129 L15.957,11.129 ZM29.032,3.387 C29.032,2.587 28.381,1.935 27.581,1.935 L18.871,1.935 C18.071,1.935 17.419,2.587 17.419,3.387 L17.419,9.194 C17.419,9.994 18.071,10.645 18.871,10.645 L24.677,10.645 L24.677,12.160 L26.950,10.645 L27.581,10.645 C28.381,10.645 29.032,9.994 29.032,9.194 L29.032,3.387 ZM25.016,6.918 L25.984,7.886 L25.300,8.570 L24.332,7.602 L25.016,6.918 ZM19.839,8.710 L22.742,8.710 L22.742,6.774 L20.806,6.774 L20.806,5.806 L22.742,5.806 L22.742,3.871 L19.839,3.871 L19.839,2.903 L26.613,2.903 L26.613,3.871 L23.710,3.871 L23.710,5.806 L25.645,5.806 L25.645,6.774 L23.710,6.774 L23.710,8.710 L26.613,8.710 L26.613,9.677 L19.839,9.677 L19.839,8.710 ZM9.194,9.194 L8.226,9.194 L8.226,8.226 L9.194,8.226 L9.194,9.194 ZM11.129,9.194 L10.161,9.194 L10.161,8.226 L11.129,8.226 L11.129,9.194 ZM13.065,9.194 L12.097,9.194 L12.097,8.226 L13.065,8.226 L13.065,9.194 Z" class="cls-1"/>
</svg>
