<svg xmlns="http://www.w3.org/2000/svg" xmlns:xlink="http://www.w3.org/1999/xlink" preserveAspectRatio="xMidYMid" width="30" height="30" viewBox="0 0 30 30">
  <defs>
    <style>
      .cls-1 {
        fill: #1dc8cc;
        fill-rule: evenodd;
      }
    </style>
  </defs>
  <path d="M5.726,7.156 L20.286,7.156 C20.526,7.156 20.721,7.353 20.721,7.595 C20.721,7.838 20.526,8.035 20.286,8.035 L5.726,8.035 C5.485,8.035 5.291,7.838 5.291,7.595 C5.291,7.353 5.485,7.156 5.726,7.156 ZM5.726,11.128 L18.795,11.128 C19.035,11.128 19.230,11.325 19.230,11.568 C19.230,11.811 19.035,12.007 18.795,12.007 L5.726,12.007 C5.485,12.007 5.291,11.811 5.291,11.568 C5.291,11.325 5.485,11.128 5.726,11.128 ZM5.726,19.074 L13.880,19.074 C14.120,19.074 14.315,19.271 14.315,19.513 C14.315,19.756 14.120,19.953 13.880,19.953 L5.726,19.953 C5.485,19.953 5.291,19.756 5.291,19.513 C5.291,19.271 5.485,19.074 5.726,19.074 ZM5.726,15.101 L16.338,15.101 C16.578,15.101 16.773,15.298 16.773,15.541 C16.773,15.783 16.578,15.980 16.338,15.980 L5.726,15.980 C5.485,15.980 5.291,15.783 5.291,15.541 C5.291,15.298 5.485,15.101 5.726,15.101 ZM26.742,9.992 L27.536,10.493 L27.536,10.493 C27.997,10.784 28.137,11.396 27.849,11.862 L25.438,15.759 C25.310,15.966 25.042,16.027 24.839,15.899 C24.635,15.771 24.573,15.500 24.700,15.294 L27.111,11.397 C27.144,11.343 27.128,11.272 27.075,11.238 L26.281,10.737 C25.592,11.851 20.721,19.725 20.100,20.729 C19.973,20.935 19.704,20.998 19.501,20.869 C19.297,20.740 19.235,20.469 19.362,20.264 L23.567,13.466 L21.443,12.126 L15.432,21.845 L17.555,23.185 L18.282,22.011 C18.409,21.805 18.677,21.742 18.881,21.871 C19.085,21.999 19.147,22.271 19.019,22.476 L18.183,23.829 C18.082,23.992 17.921,24.095 17.746,24.130 L16.535,25.536 C16.438,26.064 16.346,26.924 16.465,27.304 C16.563,27.617 16.423,27.953 16.131,28.103 L14.147,29.121 L22.725,29.121 C22.955,29.121 23.142,28.932 23.142,28.700 L23.142,16.714 C23.142,16.471 23.337,16.274 23.577,16.274 C23.817,16.274 24.012,16.471 24.012,16.714 L24.012,28.700 C24.012,29.417 23.434,30.000 22.725,30.000 L3.287,30.000 C2.577,30.000 2.000,29.417 2.000,28.700 L2.000,3.413 C2.000,2.697 2.577,2.113 3.287,2.113 L4.154,2.113 L4.154,1.588 C4.154,0.712 4.859,-0.000 5.726,-0.000 C6.593,-0.000 7.298,0.712 7.298,1.588 L7.298,2.113 L9.007,2.113 L9.007,1.588 C9.007,0.712 9.712,-0.000 10.579,-0.000 C11.446,-0.000 12.151,0.712 12.151,1.588 L12.151,2.113 L13.861,2.113 L13.861,1.588 C13.861,0.712 14.566,-0.000 15.433,-0.000 C16.300,-0.000 17.005,0.712 17.005,1.588 L17.005,2.113 L18.714,2.113 L18.714,1.588 C18.714,0.712 19.419,-0.000 20.286,-0.000 C21.153,-0.000 21.858,0.712 21.858,1.588 L21.858,2.113 L22.725,2.113 C23.434,2.113 24.012,2.697 24.012,3.413 L24.012,5.410 C24.012,5.653 23.817,5.850 23.577,5.850 C23.337,5.850 23.142,5.653 23.142,5.410 L23.142,3.413 C23.142,3.181 22.955,2.992 22.725,2.992 L21.858,2.992 L21.858,3.437 C21.858,4.313 21.153,5.025 20.286,5.025 C19.419,5.025 18.714,4.313 18.714,3.437 L18.714,2.992 L17.005,2.992 L17.005,3.437 C17.005,4.313 16.300,5.025 15.433,5.025 C14.566,5.025 13.861,4.313 13.861,3.437 L13.861,2.992 L12.151,2.992 L12.151,3.437 C12.151,4.313 11.446,5.025 10.579,5.025 C9.712,5.025 9.007,4.313 9.007,3.437 L9.007,2.992 L7.298,2.992 L7.298,3.437 C7.298,4.313 6.593,5.025 5.726,5.025 C4.859,5.025 4.154,4.313 4.154,3.437 L4.154,2.992 L3.287,2.992 C3.057,2.992 2.870,3.181 2.870,3.413 L2.870,28.700 C2.870,28.932 3.057,29.121 3.287,29.121 L11.618,29.121 L11.680,25.293 C11.686,24.963 11.923,24.689 12.244,24.640 C12.635,24.582 13.359,24.121 13.787,23.802 L14.507,22.086 C14.461,21.912 14.482,21.721 14.584,21.557 C15.125,20.682 23.454,7.217 23.995,6.343 C24.616,5.338 25.924,5.033 26.919,5.661 C27.914,6.288 28.216,7.610 27.594,8.614 L26.742,9.992 ZM19.584,3.437 C19.584,3.828 19.899,4.146 20.286,4.146 C20.673,4.146 20.988,3.828 20.988,3.437 L20.988,1.588 C20.988,1.197 20.673,0.879 20.286,0.879 C19.899,0.879 19.584,1.197 19.584,1.588 L19.584,3.437 ZM14.731,3.437 C14.731,3.828 15.046,4.146 15.433,4.146 C15.820,4.146 16.135,3.828 16.135,3.437 L16.135,1.588 C16.135,1.197 15.820,0.879 15.433,0.879 C15.046,0.879 14.731,1.197 14.731,1.588 L14.731,3.437 ZM9.877,3.437 C9.877,3.828 10.192,4.146 10.579,4.146 C10.966,4.146 11.281,3.828 11.281,3.437 L11.281,1.588 C11.281,1.197 10.966,0.879 10.579,0.879 C10.192,0.879 9.877,1.197 9.877,1.588 L9.877,3.437 ZM5.024,3.437 C5.024,3.828 5.339,4.146 5.726,4.146 C6.113,4.146 6.428,3.828 6.428,3.437 L6.428,1.588 C6.428,1.197 6.113,0.879 5.726,0.879 C5.339,0.879 5.024,1.197 5.024,1.588 L5.024,3.437 ZM14.161,24.612 C13.797,24.873 13.113,25.323 12.548,25.473 L12.505,28.134 L13.677,26.238 C13.804,26.033 14.073,25.970 14.277,26.099 C14.480,26.227 14.542,26.498 14.415,26.704 L13.242,28.600 L15.591,27.394 C15.476,26.815 15.577,25.996 15.650,25.552 L14.161,24.612 ZM14.687,23.908 L16.046,24.765 L16.881,23.796 L15.184,22.725 L14.687,23.908 ZM26.458,6.406 C25.873,6.036 25.099,6.217 24.733,6.808 L21.904,11.381 L24.028,12.721 L26.856,8.149 C27.222,7.557 27.044,6.775 26.458,6.406 Z" class="cls-1"/>
</svg>
