<svg xmlns="http://www.w3.org/2000/svg" xmlns:xlink="http://www.w3.org/1999/xlink" preserveAspectRatio="xMidYMid" width="30" height="30" viewBox="0 0 30 30">
  <defs>
    <style>
      .cls-1 {
        fill: #1fd0b6;
        fill-rule: evenodd;
      }
    </style>
  </defs>
  <path d="M7.744,22.140 C7.968,21.978 8.281,22.031 8.441,22.255 C8.807,22.767 9.000,23.369 9.000,23.999 C9.000,24.667 8.785,25.298 8.380,25.826 C8.281,25.954 8.133,26.021 7.983,26.021 C7.876,26.021 7.769,25.988 7.678,25.918 C7.459,25.749 7.418,25.435 7.587,25.217 C7.857,24.865 8.000,24.445 8.000,23.999 C8.000,23.580 7.871,23.177 7.628,22.837 C7.467,22.613 7.519,22.300 7.744,22.140 ZM29.374,2.832 C29.346,2.869 24.307,9.399 18.353,15.353 C14.303,19.404 11.584,21.432 10.642,22.091 C10.874,22.674 11.000,23.321 11.000,23.999 C11.000,26.328 9.352,28.381 7.082,28.882 C6.765,28.952 1.215,29.886 0.583,29.993 C0.555,29.998 0.527,29.999 0.500,29.999 C0.368,29.999 0.241,29.947 0.146,29.853 C0.032,29.738 -0.020,29.576 0.007,29.417 C0.113,28.785 1.048,23.230 1.119,22.912 C1.621,20.645 3.674,18.999 6.000,18.999 C7.201,18.999 8.363,19.432 9.270,20.218 C9.479,20.398 9.502,20.714 9.321,20.922 C9.140,21.131 8.824,21.155 8.616,20.973 C7.890,20.345 6.961,20.000 6.000,20.000 C4.139,20.000 2.497,21.316 2.095,23.129 C2.049,23.334 1.518,26.466 1.109,28.890 C3.534,28.481 6.665,27.950 6.867,27.906 C8.682,27.505 10.000,25.862 10.000,23.999 C10.000,23.341 9.859,22.720 9.598,22.196 C9.596,22.193 9.592,22.190 9.590,22.186 C9.543,22.113 9.524,22.033 9.519,21.952 C9.518,21.944 9.520,21.935 9.519,21.925 C9.519,21.875 9.522,21.825 9.536,21.777 C9.544,21.748 9.559,21.722 9.572,21.694 C9.584,21.669 9.595,21.643 9.612,21.620 C9.642,21.577 9.681,21.542 9.726,21.509 C9.731,21.506 9.734,21.499 9.740,21.496 C9.741,21.495 9.752,21.488 9.756,21.485 C9.767,21.478 9.773,21.468 9.784,21.462 C9.787,21.461 9.791,21.461 9.794,21.460 C10.036,21.298 11.131,20.545 12.911,19.035 C12.784,18.731 12.540,18.246 12.146,17.853 C11.770,17.477 11.279,17.223 10.974,17.089 C10.376,17.798 9.891,18.407 9.516,18.898 C9.348,19.117 9.034,19.159 8.815,18.992 C8.595,18.824 8.553,18.510 8.721,18.291 C9.782,16.902 11.672,14.620 14.646,11.646 C20.600,5.692 27.130,0.653 27.195,0.603 C27.289,0.519 27.912,-0.000 28.500,-0.000 C29.327,-0.000 30.000,0.672 30.000,1.499 C30.000,2.097 29.478,2.714 29.374,2.832 ZM28.500,1.000 C28.364,1.000 28.028,1.201 27.829,1.375 C27.740,1.445 21.260,6.447 15.353,12.353 C13.845,13.861 12.625,15.184 11.649,16.301 C12.014,16.485 12.470,16.763 12.853,17.146 C13.246,17.539 13.520,17.990 13.699,18.356 C14.814,17.378 16.139,16.153 17.646,14.646 C23.555,8.738 28.554,2.259 28.604,2.194 C28.803,1.967 29.000,1.639 29.000,1.499 C29.000,1.224 28.775,1.000 28.500,1.000 Z" class="cls-1"/>
</svg>
