<svg xmlns="http://www.w3.org/2000/svg" xmlns:xlink="http://www.w3.org/1999/xlink" preserveAspectRatio="xMidYMid" width="30" height="30" viewBox="0 0 30 30">
  <defs>
    <style>
      .cls-1 {
        fill: #1dc8cc;
        fill-rule: evenodd;
      }
    </style>
  </defs>
  <path d="M3.000,2.999 C3.000,2.448 3.448,1.999 4.000,1.999 C4.551,1.999 5.000,2.448 5.000,2.999 C5.000,3.551 4.551,3.999 4.000,3.999 C3.448,3.999 3.000,3.551 3.000,2.999 ZM6.000,2.999 C6.000,2.448 6.448,1.999 7.000,1.999 C7.551,1.999 8.000,2.448 8.000,2.999 C8.000,3.551 7.551,3.999 7.000,3.999 C6.448,3.999 6.000,3.551 6.000,2.999 ZM9.000,2.999 C9.000,2.448 9.448,1.999 10.000,1.999 C10.551,1.999 11.000,2.448 11.000,2.999 C11.000,3.551 10.551,3.999 10.000,3.999 C9.448,3.999 9.000,3.551 9.000,2.999 ZM29.500,20.000 C29.223,20.000 29.000,19.775 29.000,19.499 L29.000,2.500 C29.000,1.672 28.327,1.000 27.500,1.000 L2.500,1.000 C1.673,1.000 1.000,1.672 1.000,2.500 L1.000,5.000 L27.500,5.000 C27.776,5.000 28.000,5.223 28.000,5.499 C28.000,5.776 27.776,5.999 27.500,5.999 L0.500,5.999 C0.223,5.999 -0.000,5.776 -0.000,5.499 L-0.000,2.500 C-0.000,1.121 1.121,-0.000 2.500,-0.000 L27.500,-0.000 C28.878,-0.000 30.000,1.121 30.000,2.500 L30.000,19.499 C30.000,19.775 29.776,20.000 29.500,20.000 ZM5.500,26.000 L4.500,26.000 C4.223,26.000 4.000,25.776 4.000,25.499 C4.000,25.223 4.223,25.000 4.500,25.000 L5.500,25.000 C5.776,25.000 6.000,25.223 6.000,25.499 C6.000,25.776 5.776,26.000 5.500,26.000 ZM5.500,23.999 L4.500,23.999 C4.223,23.999 4.000,23.776 4.000,23.499 C4.000,23.224 4.223,22.999 4.500,22.999 L5.500,22.999 C5.776,22.999 6.000,23.224 6.000,23.499 C6.000,23.776 5.776,23.999 5.500,23.999 ZM5.500,21.999 L4.500,21.999 C4.223,21.999 4.000,21.775 4.000,21.500 C4.000,21.223 4.223,21.000 4.500,21.000 L5.500,21.000 C5.776,21.000 6.000,21.223 6.000,21.500 C6.000,21.775 5.776,21.999 5.500,21.999 ZM5.500,20.000 L4.500,20.000 C4.223,20.000 4.000,19.775 4.000,19.499 C4.000,19.223 4.223,18.999 4.500,18.999 L5.500,18.999 C5.776,18.999 6.000,19.223 6.000,19.499 C6.000,19.775 5.776,20.000 5.500,20.000 ZM5.500,17.999 L4.500,17.999 C4.223,17.999 4.000,17.776 4.000,17.499 C4.000,17.223 4.223,16.999 4.500,16.999 L5.500,16.999 C5.776,16.999 6.000,17.223 6.000,17.499 C6.000,17.776 5.776,17.999 5.500,17.999 ZM5.500,15.999 L4.500,15.999 C4.223,15.999 4.000,15.775 4.000,15.500 C4.000,15.224 4.223,14.999 4.500,14.999 L5.500,14.999 C5.776,14.999 6.000,15.224 6.000,15.500 C6.000,15.775 5.776,15.999 5.500,15.999 ZM5.500,13.999 L4.500,13.999 C4.223,13.999 4.000,13.775 4.000,13.499 C4.000,13.223 4.223,13.000 4.500,13.000 L5.500,13.000 C5.776,13.000 6.000,13.223 6.000,13.499 C6.000,13.775 5.776,13.999 5.500,13.999 ZM5.500,9.999 L4.500,9.999 C4.223,9.999 4.000,9.775 4.000,9.499 C4.000,9.223 4.223,8.999 4.500,8.999 L5.500,8.999 C5.776,8.999 6.000,9.223 6.000,9.499 C6.000,9.775 5.776,9.999 5.500,9.999 ZM5.500,12.000 L4.500,12.000 C4.223,12.000 4.000,11.775 4.000,11.499 C4.000,11.223 4.223,10.999 4.500,10.999 L5.500,10.999 C5.776,10.999 6.000,11.223 6.000,11.499 C6.000,11.775 5.776,12.000 5.500,12.000 ZM0.500,6.999 C0.777,6.999 1.000,7.224 1.000,7.499 L1.000,27.499 C1.000,28.326 1.673,29.000 2.500,29.000 L19.500,29.000 C19.776,29.000 20.000,29.223 20.000,29.500 C20.000,29.775 19.776,29.999 19.500,29.999 L2.500,29.999 C1.121,29.999 -0.000,28.878 -0.000,27.499 L-0.000,7.499 C-0.000,7.224 0.224,6.999 0.500,6.999 ZM25.000,13.499 C25.000,13.775 24.776,13.999 24.500,13.999 L16.500,13.999 C16.223,13.999 16.000,13.775 16.000,13.499 C16.000,13.223 16.223,13.000 16.500,13.000 L24.500,13.000 C24.777,13.000 25.000,13.223 25.000,13.499 ZM14.500,8.999 L17.500,8.999 C17.776,8.999 18.000,9.223 18.000,9.499 C18.000,9.775 17.776,9.999 17.500,9.999 L14.500,9.999 C14.223,9.999 14.000,9.775 14.000,9.499 C14.000,9.223 14.223,8.999 14.500,8.999 ZM7.500,13.000 L9.500,13.000 C9.776,13.000 10.000,13.223 10.000,13.499 C10.000,13.775 9.776,13.999 9.500,13.999 L7.500,13.999 C7.223,13.999 7.000,13.775 7.000,13.499 C7.000,13.223 7.223,13.000 7.500,13.000 ZM11.500,13.999 C11.223,13.999 11.000,13.775 11.000,13.499 C11.000,13.223 11.223,13.000 11.500,13.000 L14.500,13.000 C14.776,13.000 15.000,13.223 15.000,13.499 C15.000,13.775 14.776,13.999 14.500,13.999 L11.500,13.999 ZM7.500,14.999 L15.500,14.999 C15.776,14.999 16.000,15.224 16.000,15.500 C16.000,15.775 15.776,15.999 15.500,15.999 L7.500,15.999 C7.223,15.999 7.000,15.775 7.000,15.500 C7.000,15.224 7.223,14.999 7.500,14.999 ZM7.500,16.999 L12.500,16.999 C12.776,16.999 13.000,17.223 13.000,17.499 C13.000,17.776 12.776,17.999 12.500,17.999 L7.500,17.999 C7.223,17.999 7.000,17.776 7.000,17.499 C7.000,17.223 7.223,16.999 7.500,16.999 ZM7.500,18.999 L13.500,18.999 C13.776,18.999 14.000,19.223 14.000,19.499 C14.000,19.775 13.776,20.000 13.500,20.000 L7.500,20.000 C7.223,20.000 7.000,19.775 7.000,19.499 C7.000,19.223 7.223,18.999 7.500,18.999 ZM7.500,21.000 L9.500,21.000 C9.776,21.000 10.000,21.223 10.000,21.500 C10.000,21.775 9.776,21.999 9.500,21.999 L7.500,21.999 C7.223,21.999 7.000,21.775 7.000,21.500 C7.000,21.223 7.223,21.000 7.500,21.000 ZM17.500,26.000 L12.500,26.000 C12.223,26.000 12.000,25.776 12.000,25.499 C12.000,25.223 12.223,25.000 12.500,25.000 L17.500,25.000 C17.776,25.000 18.000,25.223 18.000,25.499 C18.000,25.776 17.776,26.000 17.500,26.000 ZM18.000,21.999 L16.500,21.999 C16.223,21.999 16.000,21.775 16.000,21.499 C16.000,21.223 16.223,21.000 16.500,21.000 L18.000,21.000 C18.276,21.000 18.500,21.223 18.500,21.499 C18.500,21.775 18.276,21.999 18.000,21.999 ZM15.500,22.999 L16.500,22.999 C16.776,22.999 17.000,23.224 17.000,23.499 C17.000,23.776 16.776,23.999 16.500,23.999 L15.500,23.999 C15.223,23.999 15.000,23.776 15.000,23.499 C15.000,23.224 15.223,22.999 15.500,22.999 ZM19.000,20.000 L15.500,20.000 C15.223,20.000 15.000,19.775 15.000,19.499 C15.000,19.223 15.223,18.999 15.500,18.999 L19.000,18.999 C19.276,18.999 19.500,19.223 19.500,19.499 C19.500,19.775 19.276,20.000 19.000,20.000 ZM15.000,21.499 C15.000,21.775 14.776,21.999 14.500,21.999 L11.500,21.999 C11.223,21.999 11.000,21.775 11.000,21.499 C11.000,21.223 11.223,21.000 11.500,21.000 L14.500,21.000 C14.776,21.000 15.000,21.223 15.000,21.499 ZM17.500,15.999 C17.223,15.999 17.000,15.775 17.000,15.500 C17.000,15.224 17.223,14.999 17.500,14.999 L21.500,14.999 C21.776,14.999 22.000,15.224 22.000,15.500 C22.000,15.775 21.776,15.999 21.500,15.999 L17.500,15.999 ZM23.000,17.499 C23.000,17.776 22.776,17.999 22.500,17.999 L14.500,17.999 C14.223,17.999 14.000,17.776 14.000,17.499 C14.000,17.223 14.223,16.999 14.500,16.999 L22.500,16.999 C22.776,16.999 23.000,17.223 23.000,17.499 ZM7.500,25.000 L10.500,25.000 C10.776,25.000 11.000,25.223 11.000,25.499 C11.000,25.776 10.776,26.000 10.500,26.000 L7.500,26.000 C7.223,26.000 7.000,25.776 7.000,25.499 C7.000,25.223 7.223,25.000 7.500,25.000 ZM7.500,22.999 L13.500,22.999 C13.776,22.999 14.000,23.224 14.000,23.499 C14.000,23.776 13.776,23.999 13.500,23.999 L7.500,23.999 C7.223,23.999 7.000,23.776 7.000,23.499 C7.000,23.224 7.223,22.999 7.500,22.999 ZM7.500,9.999 C7.223,9.999 7.000,9.775 7.000,9.499 C7.000,9.223 7.223,8.999 7.500,8.999 L12.500,8.999 C12.776,8.999 13.000,9.223 13.000,9.499 C13.000,9.775 12.776,9.999 12.500,9.999 L7.500,9.999 ZM16.000,11.499 C16.000,11.775 15.776,12.000 15.500,12.000 L7.500,12.000 C7.223,12.000 7.000,11.775 7.000,11.499 C7.000,11.223 7.223,10.999 7.500,10.999 L15.500,10.999 C15.776,10.999 16.000,11.223 16.000,11.499 ZM19.500,9.999 C19.223,9.999 19.000,9.775 19.000,9.499 C19.000,9.223 19.223,8.999 19.500,8.999 L21.500,8.999 C21.776,8.999 22.000,9.223 22.000,9.499 C22.000,9.775 21.776,9.999 21.500,9.999 L19.500,9.999 ZM23.000,11.499 C23.000,11.775 22.776,12.000 22.500,12.000 L17.500,12.000 C17.223,12.000 17.000,11.775 17.000,11.499 C17.000,11.223 17.224,10.999 17.500,10.999 L22.500,10.999 C22.776,10.999 23.000,11.223 23.000,11.499 ZM19.904,26.974 L20.442,26.436 C20.374,26.293 20.314,26.148 20.261,26.000 L19.500,26.000 C19.223,26.000 19.000,25.776 19.000,25.499 L19.000,23.499 C19.000,23.224 19.223,22.999 19.500,22.999 L20.262,22.999 C20.314,22.851 20.374,22.705 20.442,22.562 L19.904,22.024 C19.709,21.829 19.709,21.512 19.904,21.317 L21.318,19.903 C21.506,19.715 21.837,19.715 22.025,19.903 L22.564,20.442 C22.705,20.373 22.851,20.313 23.000,20.260 L23.000,19.499 C23.000,19.223 23.224,18.999 23.500,18.999 L25.500,18.999 C25.776,18.999 26.000,19.223 26.000,19.499 L26.000,20.260 C26.149,20.313 26.295,20.373 26.436,20.441 L26.975,19.903 C27.170,19.708 27.487,19.708 27.682,19.903 L29.096,21.317 C29.291,21.513 29.291,21.829 29.096,22.024 L28.558,22.563 C28.626,22.705 28.686,22.851 28.738,22.999 L29.500,22.999 C29.776,22.999 30.000,23.224 30.000,23.499 L30.000,25.499 C30.000,25.776 29.776,25.999 29.500,25.999 L28.738,25.999 C28.686,26.148 28.625,26.294 28.557,26.437 L29.095,26.975 C29.291,27.170 29.291,27.487 29.095,27.682 L27.681,29.096 C27.588,29.189 27.461,29.242 27.328,29.242 C27.195,29.242 27.068,29.189 26.974,29.096 L26.436,28.557 C26.294,28.625 26.148,28.686 25.999,28.738 L25.999,29.500 C25.999,29.775 25.776,29.999 25.499,29.999 L23.499,29.999 C23.223,29.999 22.999,29.775 22.999,29.500 L22.999,28.738 C22.851,28.686 22.705,28.625 22.563,28.557 L22.025,29.095 C21.837,29.283 21.505,29.283 21.318,29.095 L19.904,27.681 C19.708,27.486 19.708,27.169 19.904,26.974 ZM21.115,25.374 C21.197,25.691 21.322,25.994 21.488,26.273 C21.603,26.470 21.572,26.720 21.410,26.882 L20.964,27.328 L21.671,28.035 L22.117,27.589 C22.279,27.427 22.530,27.395 22.725,27.512 C23.007,27.678 23.309,27.802 23.623,27.883 C23.845,27.940 23.999,28.140 23.999,28.367 L23.999,29.000 L24.999,29.000 L24.999,28.368 C24.999,28.140 25.154,27.940 25.375,27.884 C25.691,27.802 25.994,27.677 26.274,27.512 C26.470,27.396 26.721,27.428 26.882,27.589 L27.328,28.036 L28.035,27.329 L27.589,26.883 C27.427,26.721 27.396,26.470 27.512,26.274 C27.678,25.994 27.803,25.691 27.884,25.375 C27.941,25.154 28.140,25.000 28.368,25.000 L29.000,25.000 L29.000,23.999 L28.368,23.999 C28.140,23.999 27.941,23.845 27.884,23.624 C27.803,23.307 27.678,23.005 27.512,22.725 C27.396,22.528 27.428,22.279 27.589,22.117 L28.035,21.671 L27.328,20.964 L26.882,21.410 C26.720,21.571 26.470,21.603 26.274,21.486 C25.995,21.322 25.693,21.197 25.375,21.114 C25.154,21.058 25.000,20.858 25.000,20.630 L25.000,20.000 L24.000,20.000 L24.000,20.630 C24.000,20.858 23.846,21.058 23.625,21.114 C23.307,21.197 23.004,21.322 22.725,21.487 C22.529,21.603 22.279,21.571 22.117,21.410 L21.671,20.963 L20.965,21.670 L21.410,22.116 C21.572,22.278 21.603,22.528 21.488,22.724 C21.322,23.004 21.197,23.307 21.115,23.624 C21.058,23.845 20.859,23.999 20.631,23.999 L20.000,23.999 L20.000,25.000 L20.631,25.000 C20.859,25.000 21.058,25.154 21.115,25.374 ZM24.500,22.999 C25.327,22.999 26.000,23.673 26.000,24.500 C26.000,25.326 25.327,26.000 24.500,26.000 C23.673,26.000 23.000,25.326 23.000,24.500 C23.000,23.673 23.673,22.999 24.500,22.999 ZM24.500,25.000 C24.776,25.000 25.000,24.775 25.000,24.500 C25.000,24.224 24.776,23.999 24.500,23.999 C24.224,23.999 24.000,24.224 24.000,24.500 C24.000,24.775 24.224,25.000 24.500,25.000 Z" class="cls-1"/>
</svg>
