<svg xmlns="http://www.w3.org/2000/svg" xmlns:xlink="http://www.w3.org/1999/xlink" preserveAspectRatio="xMidYMid" width="30" height="30" viewBox="0 0 30 30">
  <defs>
    <style>
      .cls-1 {
        fill: #1fd0b6;
        fill-rule: evenodd;
      }
    </style>
  </defs>
  <path d="M29.499,26.999 C29.223,26.999 28.999,26.775 28.999,26.500 L28.999,5.500 C28.999,4.687 28.312,3.999 27.499,3.999 L7.500,3.999 C7.223,3.999 7.000,3.775 7.000,3.499 C7.000,3.224 7.223,2.999 7.500,2.999 L27.499,2.999 C28.877,2.999 29.999,4.121 29.999,5.500 L29.999,26.500 C29.999,26.775 29.775,26.999 29.499,26.999 ZM7.853,26.146 L8.000,26.292 L8.000,6.500 C8.000,6.223 8.223,5.999 8.500,5.999 L26.292,5.999 L26.146,5.853 C25.950,5.658 25.950,5.341 26.146,5.146 C26.341,4.950 26.657,4.950 26.853,5.146 L27.852,6.145 C27.898,6.192 27.935,6.247 27.960,6.308 C28.011,6.430 28.011,6.568 27.960,6.690 C27.935,6.751 27.898,6.807 27.852,6.853 L26.853,7.853 C26.755,7.950 26.627,7.999 26.499,7.999 C26.371,7.999 26.243,7.950 26.146,7.853 C25.950,7.657 25.950,7.341 26.146,7.146 L26.292,6.999 L9.000,6.999 L9.000,26.292 L9.146,26.146 C9.341,25.950 9.658,25.950 9.853,26.146 C10.048,26.341 10.048,26.657 9.853,26.853 L8.853,27.852 C8.807,27.899 8.752,27.935 8.691,27.961 C8.629,27.986 8.565,27.999 8.500,27.999 C8.434,27.999 8.370,27.986 8.308,27.961 C8.247,27.935 8.192,27.899 8.146,27.852 L7.146,26.853 C6.951,26.657 6.951,26.341 7.146,26.146 C7.341,25.950 7.658,25.950 7.853,26.146 ZM5.500,27.499 C5.223,27.499 5.000,27.275 5.000,26.999 C5.000,25.896 4.102,24.999 3.000,24.999 C1.897,24.999 1.000,25.896 1.000,26.999 C1.000,28.102 1.897,28.999 3.000,28.999 L9.500,28.999 C9.776,28.999 10.000,29.223 10.000,29.499 C10.000,29.775 9.776,29.999 9.500,29.999 L3.000,29.999 C1.345,29.999 -0.000,28.653 -0.000,26.999 L-0.000,2.999 C-0.000,1.345 1.345,-0.001 3.000,-0.001 C4.654,-0.001 6.000,1.345 6.000,2.999 L6.000,26.999 C6.000,27.275 5.776,27.499 5.500,27.499 ZM5.000,2.999 C5.000,1.897 4.102,1.000 3.000,1.000 C1.897,1.000 1.000,1.897 1.000,2.999 L1.000,24.769 C1.532,24.292 2.231,23.999 3.000,23.999 C3.768,23.999 4.468,24.292 5.000,24.769 L5.000,2.999 ZM19.500,9.000 L21.500,9.000 C21.775,9.000 21.999,9.224 21.999,9.499 L21.999,9.708 C25.635,10.408 26.886,12.303 27.502,13.999 C27.543,13.999 27.579,14.014 27.617,14.023 C27.643,14.029 27.671,14.029 27.695,14.039 C27.733,14.055 27.764,14.083 27.797,14.108 C27.815,14.122 27.837,14.130 27.853,14.146 C27.886,14.180 27.909,14.222 27.932,14.264 C27.940,14.279 27.953,14.290 27.960,14.305 C27.985,14.365 27.999,14.430 27.999,14.500 L27.999,16.499 C27.999,16.775 27.775,16.999 27.499,16.999 L26.999,16.999 L26.999,17.999 C26.999,18.657 26.574,19.216 25.985,19.419 C25.938,20.231 25.741,22.037 24.915,23.276 L24.808,23.439 C24.179,24.396 23.127,25.999 20.500,25.999 C17.872,25.999 16.820,24.396 16.190,23.439 L16.084,23.276 C15.257,22.037 15.061,20.231 15.014,19.419 C14.425,19.216 14.000,18.657 14.000,17.999 L14.000,16.999 L13.525,16.999 C13.249,16.999 13.025,16.775 13.025,16.499 L13.025,14.625 C13.014,14.584 13.000,14.544 13.000,14.500 C13.000,14.223 13.223,13.999 13.500,13.999 L13.503,13.999 C14.199,12.247 15.986,10.230 19.000,9.697 L19.000,9.499 C19.000,9.224 19.223,9.000 19.500,9.000 ZM15.000,17.999 C15.000,18.275 15.224,18.499 15.500,18.499 C15.775,18.499 15.999,18.723 16.000,18.999 C16.000,19.022 16.013,21.368 16.916,22.722 L17.026,22.890 C17.611,23.780 18.412,24.999 20.500,24.999 C22.587,24.999 23.387,23.780 23.972,22.890 L24.083,22.722 C24.985,21.368 24.999,19.022 24.999,18.999 C25.000,18.723 25.223,18.499 25.499,18.499 C25.775,18.499 25.999,18.275 25.999,17.999 L25.999,16.999 L15.000,16.999 L15.000,17.999 ZM14.596,13.999 L16.000,13.999 C16.276,13.999 16.500,14.223 16.500,14.500 C16.500,14.775 16.276,14.999 16.000,14.999 L14.025,14.999 L14.025,15.999 L26.999,15.999 L26.999,14.999 L24.999,14.999 C24.723,14.999 24.499,14.775 24.499,14.500 C24.499,14.223 24.723,13.999 24.999,13.999 L26.428,13.999 C25.853,12.636 24.756,11.310 21.999,10.731 L21.999,11.999 C21.999,12.275 21.775,12.500 21.500,12.500 C21.223,12.500 21.000,12.275 21.000,11.999 L21.000,10.128 L21.000,9.999 L20.000,9.999 L20.000,10.128 L20.000,11.999 C20.000,12.275 19.775,12.500 19.500,12.500 C19.223,12.500 19.000,12.275 19.000,11.999 L19.000,10.715 C16.702,11.180 15.266,12.634 14.596,13.999 ZM22.999,18.999 C22.999,19.275 22.775,19.499 22.499,19.499 C22.223,19.499 22.000,19.275 22.000,18.999 C21.723,18.999 21.500,18.775 21.500,18.500 C21.500,18.223 21.723,17.999 21.999,17.999 L22.999,17.999 C23.275,17.999 23.499,18.223 23.499,18.500 C23.499,18.775 23.275,18.999 22.999,18.999 ZM22.494,22.009 C22.488,22.281 22.271,22.499 21.999,22.499 C21.904,22.499 21.408,22.476 20.500,22.055 C19.590,22.476 19.095,22.499 19.000,22.499 C18.723,22.499 18.500,22.275 18.500,22.000 C18.500,21.723 18.723,21.499 19.000,21.499 C18.993,21.499 19.427,21.477 20.275,21.052 C20.416,20.982 20.582,20.982 20.723,21.052 C21.572,21.477 22.005,21.499 22.010,21.499 C22.281,21.511 22.499,21.738 22.494,22.009 ZM19.000,18.999 C19.000,19.275 18.776,19.499 18.500,19.499 C18.223,19.499 18.000,19.275 18.000,18.999 C17.723,18.999 17.500,18.775 17.500,18.500 C17.500,18.223 17.723,17.999 18.000,17.999 L19.000,17.999 C19.275,17.999 19.499,18.223 19.499,18.500 C19.499,18.775 19.275,18.999 19.000,18.999 ZM20.000,22.999 L21.000,22.999 C21.276,22.999 21.500,23.223 21.500,23.499 C21.500,23.775 21.276,23.999 21.000,23.999 L20.000,23.999 C19.723,23.999 19.500,23.775 19.500,23.499 C19.500,23.223 19.723,22.999 20.000,22.999 ZM17.500,26.500 C17.776,26.500 18.000,26.723 18.000,26.999 C18.002,27.201 18.095,28.999 20.500,28.999 C22.971,28.999 22.999,27.101 22.999,27.020 C22.999,26.744 23.223,26.520 23.499,26.520 C29.341,26.520 29.965,29.283 29.989,29.400 C30.044,29.671 29.869,29.934 29.598,29.989 C29.564,29.996 29.531,29.999 29.499,29.999 C29.265,29.999 29.057,29.835 29.009,29.598 C29.007,29.589 28.642,28.278 25.999,27.744 L25.999,29.499 C25.999,29.775 25.775,29.999 25.499,29.999 C25.223,29.999 24.999,29.775 24.999,29.499 L24.999,27.597 C24.672,27.563 24.329,27.536 23.948,27.525 C23.740,28.582 22.860,29.999 20.500,29.999 C18.136,29.999 17.257,28.569 17.051,27.505 C16.669,27.515 16.326,27.543 16.000,27.577 L16.000,29.499 C16.000,29.775 15.776,29.999 15.500,29.999 C15.223,29.999 15.000,29.775 15.000,29.499 L15.000,27.725 C12.356,28.265 11.992,29.590 11.988,29.607 C11.924,29.871 11.660,30.043 11.393,29.982 C11.127,29.923 10.956,29.667 11.009,29.401 C11.033,29.283 11.657,26.500 17.500,26.500 Z" class="cls-1"/>
</svg>
