<svg xmlns="http://www.w3.org/2000/svg" xmlns:xlink="http://www.w3.org/1999/xlink" preserveAspectRatio="xMidYMid" width="30" height="30" viewBox="0 0 30 30">
  <defs>
    <style>
      .cls-1 {
        fill: #1fd0b6;
        fill-rule: evenodd;
      }
    </style>
  </defs>
  <path d="M29.931,22.518 C29.793,23.033 29.462,23.464 28.999,23.731 L22.263,27.924 C22.210,27.960 20.609,28.999 17.000,28.999 C13.906,28.999 9.446,26.542 9.257,26.436 L9.257,26.437 C9.255,26.437 8.318,26.000 6.500,26.000 C6.223,26.000 6.000,25.776 6.000,25.499 C6.000,25.223 6.223,25.000 6.500,25.000 C8.594,25.000 9.678,25.530 9.723,25.552 C9.786,25.587 14.165,28.000 17.000,28.000 C20.268,28.000 21.711,27.091 21.725,27.081 L28.485,22.874 C28.731,22.732 28.896,22.516 28.965,22.258 C29.034,22.000 28.999,21.731 28.865,21.499 C28.732,21.269 28.516,21.103 28.258,21.034 C27.999,20.965 27.730,21.000 27.499,21.134 L21.718,23.949 C20.617,24.500 19.575,24.500 17.499,24.500 C15.481,24.500 12.542,24.014 12.418,23.993 C12.145,23.948 11.961,23.689 12.007,23.417 C12.052,23.145 12.310,22.961 12.582,23.007 C12.612,23.011 15.565,23.500 17.499,23.500 C19.478,23.500 20.381,23.500 21.276,23.052 L27.030,20.251 C27.952,19.717 29.180,20.044 29.731,20.999 C29.998,21.462 30.070,22.001 29.931,22.518 ZM19.999,17.999 C15.037,17.999 11.000,13.962 11.000,9.000 C11.000,4.037 15.037,-0.001 19.999,-0.001 C24.962,-0.001 28.999,4.037 28.999,9.000 C28.999,13.962 24.962,17.999 19.999,17.999 ZM19.999,0.999 C15.588,0.999 12.000,4.588 12.000,9.000 C12.000,13.410 15.588,16.999 19.999,16.999 C24.410,16.999 27.999,13.410 27.999,9.000 C27.999,4.588 24.410,0.999 19.999,0.999 ZM19.999,15.999 C16.140,15.999 13.000,12.860 13.000,9.000 C13.000,5.140 16.139,2.000 19.999,2.000 C23.859,2.000 26.999,5.140 26.999,9.000 C26.999,12.860 23.859,15.999 19.999,15.999 ZM19.999,2.999 C16.691,2.999 13.999,5.691 13.999,9.000 C13.999,12.308 16.691,15.000 19.999,15.000 C23.308,15.000 25.999,12.308 25.999,9.000 C25.999,5.691 23.308,2.999 19.999,2.999 ZM19.999,8.499 C21.102,8.499 21.999,9.396 21.999,10.499 C21.999,11.429 21.360,12.205 20.499,12.429 L20.499,12.500 C20.499,12.775 20.276,12.999 19.999,12.999 C19.723,12.999 19.499,12.775 19.499,12.500 L19.499,12.429 C18.639,12.205 17.999,11.429 17.999,10.499 C17.999,10.223 18.223,9.999 18.499,9.999 C18.776,9.999 18.999,10.223 18.999,10.499 C18.999,11.051 19.448,11.499 19.999,11.499 C20.551,11.499 20.999,11.051 20.999,10.499 C20.999,9.948 20.551,9.499 19.999,9.499 C18.896,9.499 17.999,8.602 17.999,7.499 C17.999,6.571 18.639,5.794 19.499,5.570 L19.499,5.500 C19.499,5.223 19.723,4.999 19.999,4.999 C20.276,4.999 20.499,5.223 20.499,5.500 L20.499,5.570 C21.360,5.794 21.999,6.571 21.999,7.499 C21.999,7.776 21.776,7.999 21.499,7.999 C21.223,7.999 20.999,7.776 20.999,7.499 C20.999,6.948 20.551,6.500 19.999,6.500 C19.448,6.500 18.999,6.948 18.999,7.499 C18.999,8.051 19.448,8.499 19.999,8.499 ZM15.999,20.999 L18.999,20.999 C20.173,20.999 20.787,21.580 20.853,21.646 C21.048,21.841 21.048,22.158 20.853,22.353 C20.755,22.451 20.627,22.499 20.499,22.499 C20.371,22.499 20.243,22.451 20.146,22.353 C20.136,22.344 19.759,22.000 18.999,22.000 L15.999,22.000 C15.083,22.000 14.046,21.222 12.950,20.399 C12.075,19.744 11.083,18.999 10.500,18.999 L6.500,18.999 C6.223,18.999 6.000,18.775 6.000,18.500 C6.000,18.223 6.223,17.999 6.500,17.999 L10.500,17.999 C11.416,17.999 12.453,18.777 13.550,19.600 C14.425,20.255 15.416,20.999 15.999,20.999 ZM2.500,26.749 C2.500,27.163 2.163,27.499 1.750,27.499 C1.336,27.499 1.000,27.163 1.000,26.749 C1.000,26.336 1.336,26.000 1.750,26.000 C2.163,26.000 2.500,26.336 2.500,26.749 ZM3.500,29.999 L0.500,29.999 C0.223,29.999 -0.000,29.775 -0.000,29.499 C-0.000,29.223 0.223,28.999 0.500,28.999 L3.500,28.999 C3.776,28.999 4.000,28.775 4.000,28.499 L4.000,17.499 C4.000,17.224 3.776,16.999 3.500,16.999 L0.500,16.999 C0.223,16.999 -0.000,16.775 -0.000,16.499 C-0.000,16.224 0.223,15.999 0.500,15.999 L3.500,15.999 C4.327,15.999 5.000,16.672 5.000,17.499 L5.000,28.499 C5.000,29.326 4.327,29.999 3.500,29.999 Z" class="cls-1"/>
</svg>
