<svg xmlns="http://www.w3.org/2000/svg" xmlns:xlink="http://www.w3.org/1999/xlink" preserveAspectRatio="xMidYMid" width="30" height="30" viewBox="0 0 30 30">
  <defs>
    <style>
      .cls-1 {
        fill: #1fd0b6;
        fill-rule: evenodd;
      }
    </style>
  </defs>
  <path d="M4.355,30.000 L4.355,29.032 L5.323,29.032 L5.323,28.065 L1.452,28.065 C0.651,28.065 -0.000,27.413 -0.000,26.613 L-0.000,17.903 C-0.000,17.103 0.651,16.452 1.452,16.452 L13.065,16.452 C13.865,16.452 14.516,17.103 14.516,17.903 L14.516,20.546 C14.737,20.441 14.967,20.354 15.206,20.299 L18.871,19.454 L18.871,18.501 C18.498,18.202 18.184,17.834 17.943,17.419 L17.419,17.419 C16.085,17.419 15.000,16.334 15.000,15.000 C15.000,14.460 15.184,13.966 15.484,13.563 L15.484,11.613 C15.484,8.411 18.088,5.806 21.290,5.806 C24.492,5.806 27.097,8.411 27.097,11.613 L27.097,13.563 C27.397,13.966 27.581,14.460 27.581,15.000 C27.581,16.334 26.495,17.419 25.161,17.419 L24.638,17.419 C24.396,17.834 24.082,18.202 23.710,18.501 L23.710,19.454 L27.375,20.299 C28.921,20.656 30.000,22.013 30.000,23.600 L30.000,30.000 L4.355,30.000 ZM22.216,29.032 L21.813,24.194 L20.768,24.194 L20.365,29.032 L22.216,29.032 ZM20.425,21.245 L19.245,20.361 L18.975,20.423 L19.232,21.961 L20.425,21.245 ZM20.393,22.393 L20.671,23.226 L21.909,23.226 L22.187,22.393 L21.290,21.855 L20.393,22.393 ZM19.839,19.597 L21.290,20.685 L22.742,19.597 L22.742,19.070 C22.294,19.252 21.804,19.355 21.290,19.355 C20.777,19.355 20.287,19.252 19.839,19.070 L19.839,19.597 ZM22.156,21.245 L23.370,21.974 L23.677,20.440 L23.336,20.361 L22.156,21.245 ZM9.194,29.032 L12.581,29.032 L12.581,28.065 L9.194,28.065 L9.194,29.032 ZM6.290,29.032 L8.226,29.032 L8.226,26.129 C8.226,25.595 7.792,25.161 7.258,25.161 C6.724,25.161 6.290,25.595 6.290,26.129 L6.290,29.032 ZM13.548,17.903 C13.548,17.636 13.331,17.419 13.065,17.419 L1.452,17.419 C1.185,17.419 0.968,17.636 0.968,17.903 L0.968,26.613 C0.968,26.880 1.185,27.097 1.452,27.097 L5.323,27.097 L5.323,26.129 C5.323,25.062 6.191,24.194 7.258,24.194 C8.326,24.194 9.194,25.062 9.194,26.129 L9.194,27.097 L13.065,27.097 C13.331,27.097 13.548,26.880 13.548,26.613 L13.548,17.903 ZM18.510,23.522 L18.031,20.641 L15.423,21.242 C15.093,21.319 14.785,21.467 14.516,21.670 L14.516,26.613 C14.516,27.243 14.110,27.775 13.548,27.975 L13.548,29.032 L15.968,29.032 L15.968,23.710 L16.935,23.710 L16.935,29.032 L19.394,29.032 L19.832,23.769 L19.544,22.903 L18.510,23.522 ZM15.968,15.000 C15.968,15.800 16.619,16.452 17.419,16.452 L17.547,16.452 C17.466,16.141 17.419,15.819 17.419,15.484 L17.419,13.548 C16.619,13.548 15.968,14.200 15.968,15.000 ZM25.161,16.452 C25.962,16.452 26.613,15.800 26.613,15.000 C26.613,14.200 25.962,13.548 25.161,13.548 L25.161,15.484 C25.161,15.819 25.114,16.141 25.034,16.452 L25.161,16.452 ZM25.161,11.613 L25.161,12.581 C25.506,12.581 25.832,12.655 26.129,12.786 L26.129,11.613 C26.129,8.945 23.958,6.774 21.290,6.774 C18.622,6.774 16.452,8.945 16.452,11.613 L16.452,12.786 C16.749,12.655 17.075,12.581 17.419,12.581 L17.419,11.613 L18.387,11.613 L18.387,12.581 L18.470,12.581 C19.213,12.581 19.939,12.280 20.464,11.755 L21.149,12.439 C21.130,12.457 21.109,12.473 21.090,12.492 C21.582,12.368 22.039,12.116 22.400,11.755 L23.084,12.439 C23.065,12.457 23.044,12.473 23.025,12.492 C23.456,12.383 23.858,12.175 24.194,11.883 L24.194,11.613 L25.161,11.613 ZM24.024,16.452 C24.132,16.148 24.194,15.824 24.194,15.484 L24.194,13.059 C23.631,13.374 22.991,13.548 22.341,13.548 L21.774,13.548 L21.774,13.287 C21.340,13.456 20.876,13.548 20.406,13.548 L19.839,13.548 L19.839,13.287 C19.404,13.456 18.940,13.548 18.470,13.548 L18.387,13.548 L18.387,15.484 C18.387,17.085 19.689,18.387 21.290,18.387 C22.148,18.387 22.917,18.012 23.448,17.419 L21.290,17.419 L21.290,16.452 L24.024,16.452 ZM29.032,23.600 C29.032,22.467 28.261,21.498 27.157,21.243 L24.620,20.657 L24.049,23.510 L23.037,22.903 L22.749,23.769 L23.187,29.032 L25.645,29.032 L25.645,23.710 L26.613,23.710 L26.613,29.032 L29.032,29.032 L29.032,23.600 ZM23.710,2.903 L24.677,2.903 L24.677,3.871 L23.710,3.871 L23.710,2.903 ZM20.806,2.903 L21.774,2.903 L21.774,3.871 L20.806,3.871 L20.806,2.903 ZM17.903,2.903 L18.871,2.903 L18.871,3.871 L17.903,3.871 L17.903,2.903 ZM7.742,15.484 C3.473,15.484 -0.000,12.011 -0.000,7.742 C-0.000,3.473 3.473,-0.000 7.742,-0.000 C12.011,-0.000 15.484,3.473 15.484,7.742 C15.484,12.011 12.011,15.484 7.742,15.484 ZM7.742,0.968 C4.006,0.968 0.968,4.006 0.968,7.742 C0.968,11.478 4.006,14.516 7.742,14.516 C11.478,14.516 14.516,11.478 14.516,7.742 C14.516,4.006 11.478,0.968 7.742,0.968 ZM3.387,9.891 C3.387,9.265 3.786,8.712 4.379,8.514 L6.290,7.877 L6.290,7.246 C5.706,6.804 5.323,6.110 5.323,5.323 L5.323,4.355 C5.323,3.021 6.408,1.935 7.742,1.935 C9.076,1.935 10.161,3.021 10.161,4.355 L10.161,5.323 C10.161,6.109 9.778,6.803 9.194,7.246 L9.194,7.877 L11.104,8.514 C11.698,8.712 12.097,9.265 12.097,9.891 L12.097,12.581 L3.387,12.581 L3.387,9.891 ZM9.194,4.355 C9.194,3.555 8.542,2.903 7.742,2.903 C6.942,2.903 6.290,3.555 6.290,4.355 L6.290,5.323 C6.290,6.123 6.942,6.774 7.742,6.774 C8.542,6.774 9.194,6.123 9.194,5.323 L9.194,4.355 ZM4.355,11.613 L11.129,11.613 L11.129,9.891 C11.129,9.683 10.996,9.498 10.798,9.432 L8.226,8.575 L8.226,7.693 C8.069,7.725 7.907,7.742 7.742,7.742 C7.577,7.742 7.414,7.725 7.258,7.693 L7.258,8.575 L4.686,9.432 C4.487,9.498 4.355,9.682 4.355,9.891 L4.355,11.613 Z" class="cls-1"/>
</svg>
