<svg xmlns="http://www.w3.org/2000/svg" xmlns:xlink="http://www.w3.org/1999/xlink" preserveAspectRatio="xMidYMid" width="30" height="30" viewBox="0 0 30 30">
  <defs>
    <style>
      .cls-1 {
        fill: #1dc8cc;
        fill-rule: evenodd;
      }
    </style>
  </defs>
  <path d="M30.000,23.602 L29.920,23.842 C28.965,26.710 26.684,28.993 23.819,29.949 L23.666,30.000 L23.514,29.949 C22.706,29.680 21.949,29.302 21.251,28.839 L21.251,29.007 C21.251,29.540 20.818,29.974 20.285,29.974 L0.966,29.974 C0.433,29.974 0.000,29.540 0.000,29.007 L0.000,0.967 C0.000,0.434 0.433,-0.000 0.966,-0.000 L20.285,-0.000 C20.818,-0.000 21.251,0.434 21.251,0.967 L21.251,16.830 C22.024,16.606 22.742,16.196 23.325,15.612 L23.666,15.270 L24.008,15.612 C25.107,16.713 26.680,17.217 28.214,16.961 L29.047,16.823 L28.760,19.406 C28.601,20.832 28.988,22.251 29.848,23.399 L30.000,23.602 ZM0.966,0.967 L0.966,3.184 L3.181,0.967 L0.966,0.967 ZM4.547,0.967 L0.966,4.551 L0.966,5.601 L5.596,0.967 L4.547,0.967 ZM20.285,0.967 L6.962,0.967 L0.966,6.968 L0.966,29.007 L20.285,29.007 L20.286,29.007 L20.286,28.108 C18.977,26.981 17.969,25.512 17.413,23.842 L17.332,23.602 L17.484,23.399 C18.344,22.251 18.731,20.833 18.573,19.407 L18.286,16.823 L19.118,16.961 C19.508,17.026 19.899,17.042 20.285,17.011 L20.285,0.967 ZM23.184,16.979 C22.077,17.735 20.733,18.092 19.385,17.970 L19.533,19.300 C19.709,20.885 19.311,22.461 18.409,23.767 L18.409,23.767 C19.233,26.024 20.983,27.840 23.183,28.776 L23.183,24.976 L22.466,25.524 C22.299,25.651 22.069,25.657 21.897,25.536 C21.725,25.416 21.650,25.198 21.712,24.997 L22.183,23.472 L20.958,22.536 C20.794,22.410 20.728,22.194 20.794,21.997 C20.860,21.800 21.044,21.668 21.251,21.668 L22.740,21.668 L23.184,20.232 L23.184,16.979 ZM23.775,22.295 L23.666,21.943 L23.557,22.295 C23.495,22.497 23.307,22.636 23.096,22.636 L22.679,22.636 L23.037,22.909 C23.198,23.032 23.265,23.242 23.205,23.436 L23.081,23.837 L23.373,23.614 C23.459,23.547 23.563,23.515 23.666,23.515 C23.770,23.515 23.873,23.548 23.959,23.614 L24.251,23.837 L24.127,23.436 C24.068,23.242 24.135,23.032 24.295,22.909 L24.653,22.636 L24.237,22.636 C24.025,22.636 23.837,22.497 23.775,22.295 ZM27.800,19.300 L27.947,17.970 C26.603,18.095 25.256,17.736 24.149,16.979 L24.149,20.231 L24.593,21.668 L26.081,21.668 C26.288,21.668 26.471,21.800 26.538,21.997 C26.605,22.193 26.538,22.410 26.374,22.536 L25.149,23.472 L25.620,24.996 C25.682,25.197 25.607,25.415 25.435,25.536 C25.352,25.594 25.255,25.623 25.159,25.623 C25.055,25.623 24.952,25.590 24.865,25.523 L24.149,24.976 L24.149,28.776 C26.349,27.840 28.099,26.024 28.923,23.767 C28.022,22.461 27.624,20.885 27.800,19.300 ZM10.626,21.272 L17.387,21.272 L17.387,22.239 L10.626,22.239 L10.626,21.272 ZM3.864,19.338 L17.387,19.338 L17.387,20.305 L3.864,20.305 L3.864,19.338 ZM10.626,17.404 L17.387,17.404 L17.387,18.371 L10.626,18.371 L10.626,17.404 ZM3.864,15.470 L17.387,15.470 L17.387,16.437 L3.864,16.437 L3.864,15.470 ZM15.455,11.603 C14.390,11.603 13.524,10.735 13.524,9.669 L13.524,9.071 L14.674,6.768 L11.592,6.768 L11.592,12.570 L13.524,12.570 L13.524,13.537 L8.694,13.537 L8.694,12.570 L10.626,12.570 L10.626,6.768 L7.543,6.768 L8.694,9.071 L8.694,9.669 C8.694,10.735 7.827,11.603 6.762,11.603 C5.696,11.603 4.830,10.735 4.830,9.669 L4.830,9.071 L6.463,5.801 L10.626,5.801 L10.626,3.868 L11.592,3.868 L11.592,5.801 L15.754,5.801 L17.387,9.071 L17.387,9.669 C17.387,10.735 16.521,11.603 15.455,11.603 ZM6.762,10.636 C7.295,10.636 7.728,10.202 7.728,9.669 L5.796,9.669 C5.796,10.202 6.229,10.636 6.762,10.636 ZM6.762,7.366 L6.094,8.702 L7.429,8.702 L6.762,7.366 ZM15.455,7.366 L14.788,8.702 L16.123,8.702 L15.455,7.366 ZM14.489,9.669 C14.489,10.202 14.923,10.636 15.455,10.636 C15.988,10.636 16.421,10.202 16.421,9.669 L14.489,9.669 ZM9.660,18.371 L3.864,18.371 L3.864,17.404 L9.660,17.404 L9.660,18.371 ZM9.660,22.239 L3.864,22.239 L3.864,21.272 L9.660,21.272 L9.660,22.239 ZM9.660,26.106 L3.864,26.106 L3.864,23.206 L9.660,23.206 L9.660,26.106 ZM8.694,24.173 L4.830,24.173 L4.830,25.139 L8.694,25.139 L8.694,24.173 ZM12.075,23.206 C12.873,23.206 13.524,23.856 13.524,24.656 C13.524,25.456 12.873,26.106 12.075,26.106 C11.276,26.106 10.626,25.456 10.626,24.656 C10.626,23.856 11.276,23.206 12.075,23.206 ZM12.075,25.139 C12.341,25.139 12.558,24.922 12.558,24.656 C12.558,24.390 12.341,24.173 12.075,24.173 C11.808,24.173 11.592,24.390 11.592,24.656 C11.592,24.922 11.808,25.139 12.075,25.139 ZM15.938,23.206 C16.737,23.206 17.387,23.856 17.387,24.656 C17.387,25.456 16.737,26.106 15.938,26.106 C15.140,26.106 14.489,25.456 14.489,24.656 C14.489,23.856 15.140,23.206 15.938,23.206 ZM15.938,25.139 C16.205,25.139 16.421,24.922 16.421,24.656 C16.421,24.390 16.205,24.173 15.938,24.173 C15.672,24.173 15.455,24.390 15.455,24.656 C15.455,24.922 15.672,25.139 15.938,25.139 Z" class="cls-1"/>
</svg>
