<svg xmlns="http://www.w3.org/2000/svg" xmlns:xlink="http://www.w3.org/1999/xlink" preserveAspectRatio="xMidYMid" width="30" height="30" viewBox="0 0 30 30">
  <defs>
    <style>
      .cls-1 {
        fill: #1dc8cc;
        fill-rule: evenodd;
      }
    </style>
  </defs>
  <path d="M3.000,2.999 C3.000,2.448 3.448,1.999 4.000,1.999 C4.551,1.999 5.000,2.448 5.000,2.999 C5.000,3.551 4.551,3.999 4.000,3.999 C3.448,3.999 3.000,3.551 3.000,2.999 ZM6.000,2.999 C6.000,2.448 6.448,1.999 7.000,1.999 C7.552,1.999 8.000,2.448 8.000,2.999 C8.000,3.551 7.552,3.999 7.000,3.999 C6.448,3.999 6.000,3.551 6.000,2.999 ZM9.000,2.999 C9.000,2.448 9.448,1.999 10.000,1.999 C10.552,1.999 11.000,2.448 11.000,2.999 C11.000,3.551 10.551,3.999 10.000,3.999 C9.448,3.999 9.000,3.551 9.000,2.999 ZM28.707,29.703 C28.632,29.743 28.552,29.762 28.472,29.762 C28.293,29.762 28.120,29.667 28.031,29.498 C27.900,29.254 27.992,28.952 28.236,28.822 C28.715,28.565 29.000,28.071 29.000,27.499 L29.000,2.500 C29.000,1.672 28.327,1.000 27.500,1.000 L2.500,1.000 C1.673,1.000 1.000,1.672 1.000,2.500 L1.000,5.000 L27.500,5.000 C27.776,5.000 28.000,5.223 28.000,5.499 C28.000,5.776 27.776,5.999 27.500,5.999 L0.500,5.999 C0.223,5.999 -0.000,5.776 -0.000,5.499 L-0.000,2.500 C-0.000,1.121 1.121,-0.000 2.500,-0.000 L27.500,-0.000 C28.878,-0.000 30.000,1.121 30.000,2.500 L30.000,27.500 C30.000,28.432 29.505,29.277 28.707,29.703 ZM3.500,7.999 L7.500,7.999 C7.776,7.999 8.000,8.223 8.000,8.499 C8.000,8.775 7.776,8.999 7.500,8.999 L3.500,8.999 C3.223,8.999 3.000,8.775 3.000,8.499 C3.000,8.223 3.223,7.999 3.500,7.999 ZM3.500,27.999 C3.223,27.999 3.000,27.775 3.000,27.499 L3.000,24.500 C3.000,24.223 3.223,23.999 3.500,23.999 L6.500,23.999 C6.776,23.999 7.000,24.223 7.000,24.500 L7.000,27.499 C7.000,27.775 6.776,27.999 6.500,27.999 C6.223,27.999 6.000,27.775 6.000,27.499 L6.000,24.999 L4.000,24.999 L4.000,27.499 C4.000,27.775 3.776,27.999 3.500,27.999 ZM8.500,27.999 C8.224,27.999 8.000,27.775 8.000,27.499 L8.000,16.500 C8.000,16.223 8.224,15.999 8.500,15.999 L11.500,15.999 C11.776,15.999 12.000,16.223 12.000,16.500 L12.000,27.499 C12.000,27.775 11.776,27.999 11.500,27.999 C11.223,27.999 11.000,27.775 11.000,27.499 L11.000,16.999 L9.000,16.999 L9.000,27.499 C9.000,27.775 8.776,27.999 8.500,27.999 ZM20.500,7.999 L22.500,7.999 C22.776,7.999 23.000,8.223 23.000,8.500 C23.000,8.775 22.776,8.999 22.500,8.999 L20.500,8.999 C20.224,8.999 20.000,8.775 20.000,8.500 C20.000,8.223 20.224,7.999 20.500,7.999 ZM22.000,12.499 L22.000,27.499 C22.000,27.775 21.776,27.999 21.500,27.999 C21.223,27.999 21.000,27.775 21.000,27.499 L21.000,13.000 L19.000,13.000 L19.000,27.499 C19.000,27.775 18.776,27.999 18.500,27.999 C18.223,27.999 18.000,27.775 18.000,27.499 L18.000,12.499 C18.000,12.223 18.223,12.000 18.500,12.000 L21.500,12.000 C21.776,12.000 22.000,12.223 22.000,12.499 ZM16.500,7.999 L18.500,7.999 C18.776,7.999 19.000,8.223 19.000,8.499 C19.000,8.775 18.776,8.999 18.500,8.999 L16.500,8.999 C16.223,8.999 16.000,8.775 16.000,8.499 C16.000,8.223 16.223,7.999 16.500,7.999 ZM13.500,27.999 C13.223,27.999 13.000,27.775 13.000,27.499 L13.000,20.499 C13.000,20.223 13.223,20.000 13.500,20.000 L16.500,20.000 C16.776,20.000 17.000,20.224 17.000,20.499 L17.000,27.499 C17.000,27.775 16.776,27.999 16.500,27.999 C16.223,27.999 16.000,27.775 16.000,27.499 L16.000,21.000 L14.000,21.000 L14.000,27.499 C14.000,27.775 13.776,27.999 13.500,27.999 ZM26.500,8.999 L24.500,8.999 C24.223,8.999 24.000,8.775 24.000,8.499 C24.000,8.223 24.223,7.999 24.500,7.999 L26.500,7.999 C26.776,7.999 27.000,8.223 27.000,8.499 C27.000,8.775 26.776,8.999 26.500,8.999 ZM0.500,6.999 C0.776,6.999 1.000,7.224 1.000,7.499 L1.000,27.499 C1.000,28.354 1.645,29.000 2.500,29.000 L26.000,29.000 L26.000,16.999 L24.000,16.999 L24.000,27.499 C24.000,27.775 23.777,27.999 23.500,27.999 C23.223,27.999 23.000,27.775 23.000,27.499 L23.000,16.500 C23.000,16.223 23.223,15.999 23.500,15.999 L26.500,15.999 C26.776,15.999 27.000,16.223 27.000,16.500 L27.000,29.500 C27.000,29.775 26.776,29.999 26.500,29.999 L2.500,29.999 C1.098,29.999 -0.000,28.901 -0.000,27.499 L-0.000,7.499 C-0.000,7.224 0.224,6.999 0.500,6.999 Z" class="cls-1"/>
</svg>
