<svg xmlns="http://www.w3.org/2000/svg" xmlns:xlink="http://www.w3.org/1999/xlink" preserveAspectRatio="xMidYMid" width="30" height="30" viewBox="0 0 30 30">
  <defs>
    <style>
      .cls-1 {
        fill: #1fd0b6;
        fill-rule: evenodd;
      }
    </style>
  </defs>
  <path d="M29.101,5.276 C29.359,5.538 29.519,5.897 29.519,6.293 C29.519,7.094 28.868,7.745 28.068,7.745 C27.969,7.745 27.873,7.735 27.780,7.716 C27.287,8.520 26.730,9.357 26.111,10.218 C26.746,11.687 27.100,13.305 27.100,15.005 C27.100,21.676 21.673,27.103 15.003,27.103 C13.300,27.103 11.680,26.748 10.209,26.111 C6.950,28.459 3.984,29.999 2.078,30.000 C1.441,30.000 0.923,29.828 0.552,29.456 C-0.401,28.504 -0.118,26.587 1.384,23.760 C1.129,23.498 0.970,23.141 0.970,22.748 C0.970,21.947 1.621,21.296 2.421,21.296 C2.561,21.296 2.693,21.322 2.821,21.359 C3.153,20.852 3.511,20.330 3.896,19.795 C3.260,18.324 2.905,16.706 2.905,15.005 C2.905,8.333 8.332,2.906 15.003,2.906 C16.702,2.906 18.320,3.259 19.789,3.895 C22.717,1.788 27.638,-1.260 29.453,0.552 C30.288,1.387 30.161,2.981 29.101,5.276 ZM28.068,6.777 C28.335,6.777 28.551,6.560 28.551,6.293 C28.551,6.026 28.335,5.809 28.068,5.809 C27.800,5.809 27.584,6.026 27.584,6.293 C27.584,6.560 27.800,6.777 28.068,6.777 ZM25.437,11.134 C24.607,12.237 23.688,13.372 22.694,14.521 L26.120,14.521 C26.069,13.334 25.832,12.196 25.437,11.134 ZM24.995,10.109 C24.924,9.965 24.851,9.822 24.774,9.681 L21.204,9.681 C21.103,9.966 20.919,10.210 20.677,10.381 C21.040,11.671 21.240,13.059 21.277,14.521 L21.409,14.521 C22.741,13.017 23.948,11.532 24.995,10.109 ZM26.120,15.489 L21.841,15.489 C21.649,15.703 21.454,15.918 21.257,16.133 C21.164,17.734 20.879,19.125 20.479,20.328 L24.774,20.328 C25.567,18.879 26.045,17.235 26.120,15.489 ZM24.178,21.296 L20.118,21.296 C19.154,23.605 17.783,25.111 16.734,26.000 C19.815,25.517 22.480,23.764 24.178,21.296 ZM11.526,20.329 L15.716,20.329 C16.489,19.615 17.273,18.862 18.066,18.068 C18.842,17.292 19.591,16.512 20.311,15.733 L20.311,15.733 C20.314,15.653 20.314,15.570 20.315,15.489 L16.365,15.489 C16.164,16.051 15.632,16.457 15.002,16.457 C14.372,16.457 13.840,16.051 13.639,15.489 L9.696,15.489 C9.732,16.863 9.921,18.164 10.260,19.370 C10.847,19.410 11.336,19.796 11.526,20.329 ZM11.211,21.812 C11.518,22.406 11.849,22.931 12.187,23.392 C12.985,22.745 13.808,22.044 14.648,21.296 L11.526,21.296 C11.457,21.491 11.351,21.666 11.211,21.812 ZM17.129,20.328 L19.455,20.328 C19.776,19.437 20.031,18.428 20.180,17.288 C19.714,17.777 19.237,18.265 18.750,18.752 C18.219,19.284 17.677,19.810 17.129,20.328 ZM15.486,15.005 C15.486,14.737 15.270,14.521 15.003,14.521 C14.735,14.521 14.519,14.737 14.519,15.005 C14.519,15.272 14.735,15.489 15.003,15.489 C15.270,15.489 15.486,15.272 15.486,15.005 ZM10.164,20.328 C9.897,20.328 9.680,20.545 9.680,20.812 C9.680,21.079 9.897,21.296 10.164,21.296 C10.431,21.296 10.648,21.079 10.648,20.812 C10.648,20.545 10.431,20.328 10.164,20.328 ZM13.639,14.521 C13.840,13.959 14.372,13.553 15.002,13.553 C15.632,13.553 16.164,13.959 16.365,14.521 L20.308,14.521 C20.272,13.147 20.084,11.845 19.744,10.639 C19.157,10.600 18.668,10.213 18.479,9.681 L10.550,9.681 C10.069,11.015 9.738,12.617 9.689,14.521 L13.639,14.521 ZM19.841,9.681 C20.109,9.681 20.325,9.464 20.325,9.197 C20.325,8.930 20.109,8.713 19.841,8.713 C19.574,8.713 19.358,8.930 19.358,9.197 C19.358,9.464 19.574,9.681 19.841,9.681 ZM15.005,26.064 C15.678,25.663 17.713,24.260 19.062,21.296 L16.086,21.296 C14.993,22.293 13.883,23.250 12.783,24.140 C13.726,25.221 14.613,25.826 15.005,26.064 ZM13.288,26.003 C12.899,25.672 12.466,25.258 12.023,24.745 C11.722,24.981 11.422,25.212 11.124,25.437 C11.816,25.695 12.540,25.887 13.288,26.003 ZM11.429,23.996 C11.053,23.487 10.686,22.905 10.346,22.246 C10.286,22.253 10.226,22.264 10.164,22.264 C9.534,22.264 9.001,21.858 8.801,21.296 L5.828,21.296 C6.910,22.869 8.385,24.151 10.110,25.000 C10.540,24.683 10.980,24.348 11.429,23.996 ZM2.421,22.264 C2.154,22.264 1.938,22.481 1.938,22.748 C1.938,23.015 2.154,23.232 2.421,23.232 C2.689,23.232 2.905,23.015 2.905,22.748 C2.905,22.481 2.689,22.264 2.421,22.264 ZM3.611,21.919 C3.775,22.155 3.873,22.440 3.873,22.748 C3.873,23.548 3.222,24.200 2.421,24.200 C2.364,24.200 2.310,24.189 2.255,24.183 C1.031,26.480 0.649,28.184 1.236,28.772 C2.119,29.654 5.158,28.500 9.229,25.634 C7.185,24.519 5.496,22.831 4.379,20.787 C4.109,21.173 3.852,21.551 3.611,21.919 ZM5.231,20.328 L8.801,20.328 C8.903,20.044 9.087,19.800 9.328,19.628 C8.966,18.339 8.765,16.951 8.728,15.489 L3.885,15.489 C3.960,17.235 4.438,18.879 5.231,20.328 ZM3.885,14.521 L8.722,14.521 C8.768,12.646 9.073,11.042 9.526,9.681 L5.231,9.681 C4.438,11.130 3.960,12.774 3.885,14.521 ZM5.828,8.713 L9.887,8.713 C10.851,6.404 12.222,4.899 13.271,4.009 C10.190,4.493 7.525,6.245 5.828,8.713 ZM15.000,3.945 C14.328,4.345 12.293,5.748 10.943,8.713 L18.479,8.713 C18.548,8.519 18.654,8.343 18.794,8.197 C17.450,5.596 15.615,4.318 15.000,3.945 ZM16.717,4.006 C17.610,4.765 18.739,5.978 19.659,7.764 C19.719,7.756 19.779,7.745 19.841,7.745 C20.471,7.745 21.004,8.151 21.204,8.713 L24.178,8.713 C22.477,6.241 19.806,4.486 16.717,4.006 ZM28.769,1.236 C28.030,0.497 25.286,1.214 20.783,4.379 C22.826,5.495 24.513,7.183 25.628,9.226 C26.113,8.535 26.555,7.863 26.953,7.212 C26.746,6.961 26.616,6.644 26.616,6.293 C26.616,5.493 27.267,4.841 28.068,4.841 C28.123,4.841 28.175,4.852 28.229,4.858 C29.063,3.049 29.267,1.735 28.769,1.236 ZM6.776,16.456 L7.744,16.456 L7.744,17.424 L6.776,17.424 L6.776,16.456 ZM4.841,16.456 L5.809,16.456 L5.809,17.424 L4.841,17.424 L4.841,16.456 ZM12.099,12.585 L11.131,12.585 L11.131,11.617 L12.099,11.617 L12.099,12.585 ZM14.035,12.585 L13.067,12.585 L13.067,11.617 L14.035,11.617 L14.035,12.585 ZM15.970,12.585 L15.003,12.585 L15.003,11.617 L15.970,11.617 L15.970,12.585 ZM12.583,19.360 L11.615,19.360 L11.615,18.392 L12.583,18.392 L12.583,19.360 ZM14.519,19.360 L13.551,19.360 L13.551,18.392 L14.519,18.392 L14.519,19.360 ZM16.454,19.360 L15.486,19.360 L15.486,18.392 L16.454,18.392 L16.454,19.360 Z" class="cls-1"/>
</svg>
