<svg xmlns="http://www.w3.org/2000/svg" xmlns:xlink="http://www.w3.org/1999/xlink" preserveAspectRatio="xMidYMid" width="30" height="30" viewBox="0 0 30 30">
  <defs>
    <style>
      .cls-1 {
        fill: #1fd0b6;
        fill-rule: evenodd;
      }
    </style>
  </defs>
  <path d="M3.000,2.999 C3.000,2.448 3.448,1.999 4.000,1.999 C4.552,1.999 5.000,2.448 5.000,2.999 C5.000,3.551 4.551,3.999 4.000,3.999 C3.448,3.999 3.000,3.551 3.000,2.999 ZM6.000,2.999 C6.000,2.448 6.448,1.999 7.000,1.999 C7.551,1.999 8.000,2.448 8.000,2.999 C8.000,3.551 7.551,3.999 7.000,3.999 C6.448,3.999 6.000,3.551 6.000,2.999 ZM9.000,2.999 C9.000,2.448 9.448,1.999 10.000,1.999 C10.551,1.999 11.000,2.448 11.000,2.999 C11.000,3.551 10.551,3.999 10.000,3.999 C9.448,3.999 9.000,3.551 9.000,2.999 ZM3.000,8.499 C3.000,8.223 3.224,7.999 3.500,7.999 L7.500,7.999 C7.776,7.999 8.000,8.223 8.000,8.499 C8.000,8.775 7.776,8.999 7.500,8.999 L3.500,8.999 C3.224,8.999 3.000,8.775 3.000,8.499 ZM16.500,8.999 C16.223,8.999 16.000,8.775 16.000,8.500 C16.000,8.223 16.223,7.999 16.500,7.999 L18.500,7.999 C18.776,7.999 19.000,8.223 19.000,8.500 C19.000,8.775 18.776,8.999 18.500,8.999 L16.500,8.999 ZM20.500,8.999 C20.223,8.999 20.000,8.775 20.000,8.500 C20.000,8.223 20.223,7.999 20.500,7.999 L22.500,7.999 C22.776,7.999 23.000,8.223 23.000,8.500 C23.000,8.775 22.776,8.999 22.500,8.999 L20.500,8.999 ZM24.000,8.500 C24.000,8.223 24.223,7.999 24.500,7.999 L26.500,7.999 C26.776,7.999 27.000,8.223 27.000,8.500 C27.000,8.775 26.776,8.999 26.500,8.999 L24.500,8.999 C24.223,8.999 24.000,8.775 24.000,8.500 ZM19.500,27.999 C19.223,27.999 19.000,27.775 19.000,27.499 L19.000,24.500 C19.000,24.223 19.223,23.999 19.500,23.999 L24.500,23.999 C24.776,23.999 25.000,24.223 25.000,24.500 L25.000,27.499 C25.000,27.775 24.776,27.999 24.500,27.999 C24.223,27.999 24.000,27.775 24.000,27.499 L24.000,25.000 L20.000,25.000 L20.000,27.499 C20.000,27.775 19.776,27.999 19.500,27.999 ZM8.000,14.499 C8.000,13.672 8.673,13.000 9.500,13.000 C10.327,13.000 11.000,13.672 11.000,14.499 C11.000,15.327 10.327,15.999 9.500,15.999 C8.673,15.999 8.000,15.327 8.000,14.499 ZM10.000,14.499 C10.000,14.224 9.775,13.999 9.500,13.999 C9.225,13.999 9.000,14.224 9.000,14.499 C9.000,14.775 9.225,14.999 9.500,14.999 C9.775,14.999 10.000,14.775 10.000,14.499 ZM12.513,21.499 C12.513,21.223 12.734,21.000 13.010,21.000 L13.015,21.000 C13.291,21.000 13.515,21.223 13.515,21.499 C13.515,21.775 13.291,21.999 13.015,21.999 C12.739,21.999 12.513,21.775 12.513,21.499 ZM14.512,21.499 C14.512,21.223 14.734,21.000 15.010,21.000 L15.015,21.000 C15.291,21.000 15.515,21.223 15.515,21.499 C15.515,21.775 15.291,21.999 15.015,21.999 C14.738,21.999 14.512,21.775 14.512,21.499 ZM17.015,21.999 C16.739,21.999 16.513,21.775 16.513,21.499 C16.513,21.223 16.734,21.000 17.010,21.000 L17.015,21.000 C17.291,21.000 17.515,21.223 17.515,21.499 C17.515,21.775 17.291,21.999 17.015,21.999 ZM12.500,27.999 C12.224,27.999 12.000,27.775 12.000,27.499 L12.000,24.500 C12.000,24.223 12.224,23.999 12.500,23.999 L17.500,23.999 C17.777,23.999 18.000,24.223 18.000,24.500 L18.000,27.499 C18.000,27.775 17.777,27.999 17.500,27.999 C17.223,27.999 17.000,27.775 17.000,27.499 L17.000,25.000 L13.000,25.000 L13.000,27.499 C13.000,27.775 12.776,27.999 12.500,27.999 ZM5.000,11.499 C5.000,11.223 5.224,10.999 5.500,10.999 L24.500,10.999 C24.776,10.999 25.000,11.223 25.000,11.499 L25.000,19.499 C25.000,19.775 24.776,20.000 24.500,20.000 L13.500,20.000 C13.224,20.000 13.000,19.775 13.000,19.499 C13.000,19.223 13.224,18.999 13.500,18.999 L24.000,18.999 L24.000,12.000 L6.000,12.000 L6.000,18.999 L10.293,18.999 L14.146,15.146 C14.342,14.950 14.658,14.950 14.853,15.146 L16.500,16.793 L19.146,14.146 C19.342,13.950 19.658,13.950 19.853,14.146 L22.853,17.146 C23.049,17.341 23.049,17.657 22.853,17.853 C22.658,18.049 22.342,18.049 22.146,17.853 L19.500,15.206 L16.853,17.853 C16.658,18.049 16.342,18.049 16.146,17.853 L14.500,16.206 L10.853,19.853 C10.759,19.947 10.632,20.000 10.500,20.000 L5.500,20.000 C5.224,20.000 5.000,19.775 5.000,19.499 L5.000,11.499 ZM5.500,27.999 C5.224,27.999 5.000,27.775 5.000,27.499 L5.000,24.500 C5.000,24.223 5.224,23.999 5.500,23.999 L10.500,23.999 C10.776,23.999 11.000,24.223 11.000,24.500 L11.000,27.499 C11.000,27.775 10.776,27.999 10.500,27.999 C10.224,27.999 10.000,27.775 10.000,27.499 L10.000,25.000 L6.000,25.000 L6.000,27.499 C6.000,27.775 5.776,27.999 5.500,27.999 ZM27.500,29.999 L2.500,29.999 C1.121,29.999 -0.000,28.878 -0.000,27.499 L-0.000,7.499 C-0.000,7.224 0.224,6.999 0.500,6.999 C0.776,6.999 1.000,7.224 1.000,7.499 L1.000,27.499 C1.000,28.326 1.673,29.000 2.500,29.000 L27.500,29.000 C28.327,29.000 29.000,28.326 29.000,27.499 L29.000,2.500 C29.000,1.672 28.327,1.000 27.500,1.000 L2.500,1.000 C1.673,1.000 1.000,1.672 1.000,2.500 L1.000,5.000 L27.500,5.000 C27.776,5.000 28.000,5.223 28.000,5.499 C28.000,5.776 27.776,5.999 27.500,5.999 L0.500,5.999 C0.224,5.999 -0.000,5.776 -0.000,5.499 L-0.000,2.500 C-0.000,1.121 1.121,-0.000 2.500,-0.000 L27.500,-0.000 C28.878,-0.000 30.000,1.121 30.000,2.500 L30.000,27.499 C30.000,28.878 28.878,29.999 27.500,29.999 Z" class="cls-1"/>
</svg>
