<svg xmlns="http://www.w3.org/2000/svg" xmlns:xlink="http://www.w3.org/1999/xlink" preserveAspectRatio="xMidYMid" width="32" height="30" viewBox="0 0 32 30">
  <defs>
    <style>
      .cls-1 {
        fill: #1dc8cc;
        fill-rule: evenodd;
      }
    </style>
  </defs>
  <path d="M32.000,15.000 C32.000,12.602 29.714,10.502 26.089,9.139 C26.152,8.754 26.207,8.374 26.245,8.003 C26.594,4.581 25.797,2.124 24.000,1.082 C23.407,0.738 22.726,0.563 21.979,0.563 C20.206,0.563 18.113,1.574 16.014,3.307 C14.315,1.899 12.612,0.969 11.060,0.670 C10.770,0.614 10.491,0.804 10.435,1.095 C10.380,1.386 10.570,1.667 10.859,1.721 C12.189,1.978 13.680,2.796 15.190,4.026 C14.048,5.075 12.917,6.327 11.847,7.746 C10.062,7.962 8.408,8.316 6.935,8.784 C6.661,7.031 6.677,5.468 7.019,4.236 C7.164,4.267 7.313,4.285 7.467,4.285 C8.643,4.285 9.600,3.324 9.600,2.142 C9.600,0.961 8.643,-0.001 7.467,-0.001 C6.290,-0.001 5.333,0.961 5.333,2.142 C5.333,2.779 5.616,3.346 6.057,3.739 C5.600,5.204 5.557,7.061 5.902,9.142 C2.282,10.505 -0.000,12.604 -0.000,15.000 C-0.000,17.330 2.173,19.443 5.903,20.844 C5.266,24.680 5.933,27.719 8.000,28.918 C8.593,29.262 9.274,29.436 10.022,29.436 C11.796,29.436 13.892,28.423 15.991,26.688 C17.708,28.112 19.412,29.035 20.941,29.329 C20.975,29.336 21.009,29.339 21.042,29.339 C21.293,29.339 21.517,29.161 21.566,28.904 C21.621,28.614 21.431,28.333 21.142,28.277 C19.839,28.026 18.340,27.215 16.811,25.973 C17.954,24.924 19.084,23.672 20.154,22.253 C21.940,22.036 23.595,21.682 25.068,21.215 C25.342,22.966 25.325,24.529 24.982,25.764 C24.837,25.732 24.687,25.714 24.533,25.714 C23.357,25.714 22.400,26.676 22.400,27.856 C22.400,29.038 23.357,29.999 24.533,29.999 C25.710,29.999 26.667,29.038 26.667,27.856 C26.667,27.220 26.384,26.654 25.944,26.261 C26.403,24.792 26.447,22.936 26.102,20.856 C29.720,19.492 32.000,17.394 32.000,15.000 ZM21.979,1.634 C22.537,1.634 23.038,1.761 23.467,2.010 C24.857,2.815 25.483,4.961 25.184,7.894 C25.154,8.184 25.108,8.484 25.061,8.783 C23.591,8.316 21.940,7.963 20.159,7.747 C19.094,6.327 17.970,5.068 16.831,4.019 C18.678,2.516 20.487,1.634 21.979,1.634 ZM24.860,9.865 C24.601,11.082 24.219,12.351 23.723,13.643 C23.342,12.846 22.925,12.046 22.467,11.249 C22.010,10.453 21.527,9.691 21.030,8.962 C22.407,9.182 23.697,9.488 24.860,9.865 ZM16.007,4.729 C16.914,5.556 17.816,6.522 18.687,7.602 C17.815,7.536 16.918,7.499 16.000,7.499 C15.083,7.499 14.188,7.536 13.318,7.602 C14.191,6.520 15.099,5.556 16.007,4.729 ZM10.970,8.962 C10.472,9.691 9.990,10.455 9.534,11.250 C9.074,12.050 8.657,12.849 8.278,13.642 C7.779,12.341 7.394,11.069 7.135,9.866 C8.300,9.489 9.591,9.182 10.970,8.962 ZM7.467,1.071 C8.055,1.071 8.533,1.551 8.533,2.142 C8.533,2.733 8.055,3.214 7.467,3.214 C6.879,3.214 6.400,2.734 6.400,2.142 C6.400,1.551 6.879,1.071 7.467,1.071 ZM1.067,15.000 C1.067,13.129 3.038,11.416 6.115,10.228 C6.450,11.744 6.973,13.352 7.667,14.992 C6.963,16.651 6.442,18.264 6.109,19.776 C2.955,18.554 1.067,16.806 1.067,15.000 ZM15.995,25.269 C15.153,24.504 14.312,23.618 13.500,22.628 C13.546,22.560 13.580,22.484 13.618,22.411 C14.415,22.466 15.215,22.499 16.000,22.499 C16.917,22.499 17.812,22.463 18.683,22.397 C17.810,23.478 16.903,24.442 15.995,25.269 ZM19.579,21.232 C18.428,21.359 17.229,21.428 16.000,21.428 C15.294,21.428 14.576,21.399 13.859,21.352 C13.818,20.206 12.884,19.285 11.733,19.285 C10.557,19.285 9.600,20.247 9.600,21.428 C9.600,22.610 10.557,23.571 11.733,23.571 C12.080,23.571 12.404,23.479 12.693,23.331 C13.506,24.319 14.339,25.205 15.175,25.975 C13.326,27.482 11.515,28.365 10.022,28.365 C9.463,28.365 8.963,28.239 8.533,27.990 C6.920,27.054 6.429,24.480 6.946,21.207 C7.237,21.300 7.536,21.388 7.844,21.472 C8.126,21.549 8.421,21.381 8.499,21.096 C8.576,20.810 8.408,20.516 8.124,20.438 C7.786,20.346 7.460,20.246 7.142,20.143 C7.399,18.943 7.780,17.668 8.279,16.359 C8.633,17.100 9.019,17.844 9.440,18.585 C9.538,18.758 9.718,18.855 9.903,18.855 C9.993,18.855 10.084,18.833 10.167,18.785 C10.423,18.638 10.512,18.311 10.366,18.054 C9.791,17.041 9.279,16.019 8.834,15.004 C9.301,13.937 9.842,12.857 10.458,11.786 C11.070,10.721 11.731,9.711 12.421,8.767 C13.573,8.640 14.771,8.571 16.000,8.571 C17.230,8.571 18.430,8.640 19.583,8.768 C20.271,9.712 20.931,10.721 21.543,11.785 C22.156,12.851 22.697,13.927 23.166,14.994 C22.694,16.067 22.156,17.147 21.543,18.214 C20.931,19.279 20.270,20.288 19.579,21.232 ZM12.800,21.428 C12.800,21.729 12.675,22.000 12.475,22.195 C12.472,22.197 12.469,22.198 12.467,22.200 C12.463,22.202 12.462,22.206 12.459,22.208 C12.269,22.388 12.014,22.499 11.733,22.499 C11.146,22.499 10.667,22.019 10.667,21.428 C10.667,20.837 11.146,20.356 11.733,20.356 C12.322,20.356 12.800,20.837 12.800,21.428 ZM21.030,21.037 C21.529,20.308 22.010,19.544 22.467,18.750 C22.924,17.954 23.338,17.151 23.720,16.348 C24.222,17.652 24.608,18.927 24.867,20.132 C23.702,20.510 22.411,20.817 21.030,21.037 ZM24.533,28.928 C23.946,28.928 23.467,28.447 23.467,27.856 C23.467,27.266 23.946,26.785 24.533,26.785 C25.122,26.785 25.600,27.266 25.600,27.856 C25.600,28.447 25.122,28.928 24.533,28.928 ZM25.890,19.769 C25.554,18.250 25.027,16.637 24.329,14.993 C25.016,13.367 25.539,11.759 25.875,10.225 C28.957,11.412 30.933,13.127 30.933,15.000 C30.933,16.868 28.964,18.582 25.890,19.769 Z" class="cls-1"/>
</svg>
