<svg xmlns="http://www.w3.org/2000/svg" xmlns:xlink="http://www.w3.org/1999/xlink" preserveAspectRatio="xMidYMid" width="40" height="55" viewBox="0 0 40 55">
  <defs>
    <style>
      .cls-1 {
        fill: #1dc8cc;
        fill-rule: evenodd;
      }
    </style>
  </defs>
  <path d="M38.182,55.000 L38.182,51.333 L32.727,51.333 L32.727,55.000 L30.909,55.000 L30.909,47.667 L32.727,47.667 L32.727,49.500 L38.182,49.500 L38.182,44.917 C38.178,41.720 35.804,38.989 32.661,38.565 L28.571,38.079 L28.436,38.394 C26.988,41.800 23.678,44.000 20.004,44.000 C20.001,44.000 19.997,44.000 19.994,44.000 C16.320,44.000 13.012,41.800 11.564,38.394 L11.427,38.070 L7.324,38.558 C4.191,38.980 1.818,41.715 1.818,44.916 L1.818,49.500 L7.272,49.500 L7.272,47.667 L9.091,47.667 L9.091,55.000 L7.272,55.000 L7.272,51.333 L1.818,51.333 L1.818,55.000 L-0.000,55.000 L-0.000,44.916 C-0.000,40.801 3.051,37.285 7.098,36.739 L13.748,35.949 C14.204,35.893 14.549,35.500 14.545,35.032 L14.545,30.574 C14.041,30.272 13.552,29.934 13.094,29.545 C10.901,27.682 9.557,25.070 9.313,22.189 L9.298,22.000 L9.091,22.000 C7.085,22.000 5.454,20.355 5.454,18.333 C5.454,16.311 7.085,14.666 9.091,14.666 L9.092,14.666 L9.091,12.740 C7.019,12.315 5.454,10.463 5.454,8.250 C5.454,7.744 5.862,7.333 6.363,7.333 L6.365,7.333 C5.794,6.567 5.454,5.614 5.454,4.583 C5.454,4.077 5.862,3.666 6.363,3.666 L6.365,3.666 C5.794,2.900 5.454,1.948 5.454,0.917 C5.454,0.411 5.862,-0.000 6.363,-0.000 L22.509,-0.000 C22.513,-0.000 22.516,-0.000 22.520,-0.000 C23.933,-0.000 25.218,0.700 25.991,1.860 C28.747,2.132 30.909,4.483 30.909,7.333 L30.909,11.917 C30.909,11.917 30.909,11.917 30.909,11.917 L30.909,14.666 C32.914,14.666 34.545,16.311 34.545,18.333 C34.545,20.355 32.914,22.000 30.909,22.000 L30.695,22.000 C30.414,25.599 28.405,28.742 25.454,30.536 L25.454,35.035 C25.451,35.509 25.794,35.902 26.254,35.958 L32.888,36.746 C36.944,37.293 39.994,40.803 40.000,44.916 L40.000,55.000 L38.182,55.000 ZM30.909,20.167 C31.912,20.167 32.727,19.344 32.727,18.333 C32.727,17.322 31.912,16.500 30.909,16.500 L30.909,17.875 C30.909,17.875 30.909,17.876 30.909,17.876 L30.909,19.250 L30.840,20.167 L30.909,20.167 ZM10.909,17.875 C10.913,19.652 12.335,21.083 14.082,21.083 C14.084,21.083 14.087,21.083 14.091,21.083 L14.109,21.083 C15.856,21.080 17.276,19.641 17.272,17.877 L17.272,16.500 L16.111,16.500 C16.267,16.770 16.363,17.081 16.363,17.417 C16.363,18.429 15.549,19.250 14.545,19.250 C13.541,19.250 12.727,18.429 12.727,17.417 C12.727,17.081 12.823,16.770 12.979,16.500 L10.909,16.500 L10.909,17.875 ZM9.091,17.895 L9.091,16.500 C8.088,16.500 7.272,17.322 7.272,18.333 C7.272,19.344 8.088,20.166 9.091,20.166 L9.158,20.166 L9.093,19.320 L9.093,17.918 C9.093,17.910 9.091,17.903 9.091,17.895 ZM29.090,7.333 C29.090,5.311 27.459,3.666 25.453,3.666 C25.109,3.666 24.794,3.470 24.640,3.159 C24.235,2.339 23.393,1.844 22.512,1.833 L7.428,1.833 C7.803,2.900 8.814,3.667 10.000,3.667 C10.502,3.667 10.909,4.077 10.909,4.583 C10.909,5.089 10.502,5.500 10.000,5.500 L7.428,5.500 C7.803,6.567 8.814,7.333 10.000,7.333 C10.502,7.333 10.909,7.744 10.909,8.250 C10.909,8.756 10.502,9.166 10.000,9.166 L7.428,9.166 C7.803,10.234 8.814,11.000 10.000,11.000 L13.636,11.000 C18.056,11.000 22.836,9.182 25.134,8.309 C25.474,8.177 25.863,8.268 26.114,8.536 C26.958,9.433 27.972,10.144 29.090,10.627 L29.090,7.333 ZM29.091,12.570 C27.656,12.068 26.333,11.283 25.226,10.231 C21.695,11.551 17.614,12.833 13.636,12.833 L10.909,12.833 L10.909,14.666 L18.182,14.666 L21.818,14.666 L21.818,14.666 C21.818,14.666 21.818,14.666 21.818,14.666 L29.092,14.666 L29.091,12.570 ZM29.092,16.500 L27.020,16.500 C27.177,16.770 27.273,17.081 27.273,17.417 C27.273,18.429 26.459,19.250 25.454,19.250 C24.450,19.250 23.636,18.429 23.636,17.417 C23.636,17.081 23.732,16.770 23.888,16.500 L22.727,16.500 L22.727,17.875 C22.732,19.655 24.163,21.048 25.907,21.083 C25.908,21.083 25.908,21.083 25.909,21.083 L25.928,21.083 C26.773,21.081 27.570,20.747 28.167,20.142 C28.765,19.536 29.093,18.732 29.092,17.878 L29.092,16.500 ZM28.865,21.926 C28.016,22.558 27.004,22.914 25.929,22.917 L25.910,22.917 C25.907,22.917 25.904,22.917 25.900,22.917 C23.154,22.917 20.915,20.666 20.909,17.895 L20.909,16.500 L19.892,16.500 L19.212,22.000 L20.909,22.000 L20.909,23.833 L18.182,23.833 C17.921,23.833 17.673,23.720 17.500,23.523 C17.327,23.326 17.247,23.064 17.279,22.803 L17.427,21.609 C16.512,22.441 15.352,22.913 14.111,22.917 L14.092,22.917 C14.089,22.917 14.085,22.917 14.082,22.917 C12.994,22.917 11.970,22.552 11.114,21.907 L11.124,22.039 C11.543,26.972 15.887,30.649 20.771,30.222 C21.039,30.199 21.304,30.164 21.568,30.117 C25.544,29.341 28.507,25.989 28.865,21.926 ZM26.039,37.779 C24.657,37.610 23.626,36.427 23.636,35.028 L23.636,31.428 C23.079,31.637 22.499,31.802 21.900,31.919 C21.568,31.979 21.247,32.022 20.925,32.049 C20.613,32.077 20.302,32.090 19.991,32.090 C18.741,32.090 17.518,31.870 16.363,31.449 L16.363,35.026 C16.373,36.419 15.342,37.601 13.963,37.769 L13.325,37.845 C14.524,40.473 17.114,42.167 19.995,42.167 C19.998,42.167 20.001,42.167 20.003,42.167 C22.881,42.167 25.469,40.476 26.671,37.854 L26.039,37.779 ZM18.182,27.500 L18.182,25.667 L18.336,25.667 C19.752,25.666 21.083,25.110 22.084,24.101 L23.370,25.398 C22.025,26.753 20.237,27.499 18.336,27.500 L18.182,27.500 Z" class="cls-1"/>
</svg>
