<svg xmlns="http://www.w3.org/2000/svg" xmlns:xlink="http://www.w3.org/1999/xlink" preserveAspectRatio="xMidYMid" width="50" height="50" viewBox="0 0 50 50">
  <defs>
    <style>
      .cls-1 {
        fill: #1dc8cc;
        fill-rule: evenodd;
      }
    </style>
  </defs>
  <path d="M40.000,15.833 C40.000,15.373 40.373,15.000 40.833,15.000 L44.167,15.000 C44.627,15.000 45.000,15.373 45.000,15.833 L45.000,20.833 C45.000,21.293 44.627,21.667 44.167,21.667 L40.833,21.667 C40.373,21.667 40.000,21.293 40.000,20.833 L40.000,15.833 ZM41.667,20.000 L43.333,20.000 L43.333,16.667 L41.667,16.667 L41.667,20.000 ZM40.833,35.000 L44.167,35.000 C44.627,35.000 45.000,35.373 45.000,35.833 L45.000,40.833 C45.000,41.293 44.627,41.667 44.167,41.667 L40.833,41.667 C40.373,41.667 40.000,41.293 40.000,40.833 L40.000,35.833 C40.000,35.373 40.373,35.000 40.833,35.000 ZM41.667,40.000 L43.333,40.000 L43.333,36.667 L41.667,36.667 L41.667,40.000 ZM40.000,25.833 C40.000,25.373 40.373,25.000 40.833,25.000 L44.167,25.000 C44.627,25.000 45.000,25.373 45.000,25.833 L45.000,30.833 C45.000,31.293 44.627,31.666 44.167,31.666 L40.833,31.666 C40.373,31.666 40.000,31.293 40.000,30.833 L40.000,25.833 ZM41.667,30.000 L43.333,30.000 L43.333,26.667 L41.667,26.667 L41.667,30.000 ZM47.500,50.000 L40.833,50.000 C39.455,50.000 38.333,48.878 38.333,47.500 C38.333,46.122 39.455,45.000 40.833,45.000 C40.978,45.000 41.121,45.012 41.262,45.037 C41.837,44.002 42.931,43.333 44.167,43.333 C45.403,43.333 46.497,44.002 47.072,45.037 C47.213,45.012 47.356,45.000 47.500,45.000 C47.794,45.000 48.072,45.060 48.333,45.153 L48.333,11.667 L39.167,11.667 C38.707,11.667 38.333,11.293 38.333,10.833 C38.333,10.373 38.707,10.000 39.167,10.000 L49.167,10.000 C49.627,10.000 50.000,10.373 50.000,10.833 L50.000,47.500 C50.000,48.878 48.878,50.000 47.500,50.000 ZM47.048,46.802 C46.820,46.949 46.534,46.976 46.283,46.874 C46.032,46.772 45.846,46.554 45.785,46.290 C45.609,45.531 44.943,45.000 44.167,45.000 C43.390,45.000 42.724,45.531 42.548,46.290 C42.487,46.554 42.302,46.772 42.050,46.874 C41.798,46.976 41.513,46.949 41.285,46.802 C41.145,46.712 40.993,46.667 40.833,46.667 C40.374,46.667 40.000,47.041 40.000,47.500 C40.000,47.959 40.374,48.333 40.833,48.333 L47.500,48.333 C47.959,48.333 48.333,47.959 48.333,47.500 C48.333,46.881 47.591,46.452 47.048,46.802 ZM35.833,48.333 L13.333,48.333 L13.333,49.167 C13.333,49.627 12.960,50.000 12.500,50.000 C12.040,50.000 11.667,49.627 11.667,49.167 L11.667,47.500 C11.667,47.040 12.040,46.667 12.500,46.667 L35.833,46.667 C36.293,46.667 36.667,47.040 36.667,47.500 C36.667,47.960 36.293,48.333 35.833,48.333 ZM23.333,30.833 C23.333,31.293 22.960,31.666 22.500,31.666 L19.167,31.666 C18.707,31.666 18.333,31.293 18.333,30.833 L18.333,30.833 L18.333,25.833 C18.333,25.373 18.707,25.000 19.167,25.000 L22.500,25.000 C22.960,25.000 23.333,25.373 23.333,25.833 L23.333,30.833 ZM21.667,26.667 L20.000,26.667 L20.000,30.000 L21.667,30.000 L21.667,26.667 ZM22.500,11.667 L19.167,11.667 C18.707,11.667 18.333,11.293 18.333,10.833 L18.333,5.833 C18.333,5.373 18.707,5.000 19.167,5.000 L22.500,5.000 C22.960,5.000 23.333,5.373 23.333,5.833 L23.333,10.833 C23.333,11.293 22.960,11.667 22.500,11.667 ZM21.667,6.667 L20.000,6.667 L20.000,10.000 L21.667,10.000 L21.667,6.667 ZM23.333,20.833 C23.333,21.293 22.960,21.666 22.500,21.666 L19.167,21.666 C18.707,21.666 18.333,21.293 18.333,20.833 L18.333,20.833 L18.333,15.833 C18.333,15.373 18.707,15.000 19.167,15.000 L22.500,15.000 C22.960,15.000 23.333,15.373 23.333,15.833 L23.333,20.833 ZM21.667,16.667 L20.000,16.667 L20.000,20.000 L21.667,20.000 L21.667,16.667 ZM31.667,30.833 C31.667,31.293 31.293,31.666 30.833,31.666 L27.500,31.666 C27.040,31.666 26.667,31.293 26.667,30.833 L26.667,25.833 C26.667,25.373 27.040,25.000 27.500,25.000 L30.833,25.000 C31.293,25.000 31.667,25.373 31.667,25.833 L31.667,30.833 ZM30.000,26.667 L28.333,26.667 L28.333,30.000 L30.000,30.000 L30.000,26.667 ZM30.833,11.667 L27.500,11.667 C27.040,11.667 26.667,11.293 26.667,10.833 L26.667,5.833 C26.667,5.373 27.040,5.000 27.500,5.000 L30.833,5.000 C31.293,5.000 31.667,5.373 31.667,5.833 L31.667,10.833 C31.667,11.293 31.293,11.667 30.833,11.667 ZM30.000,6.667 L28.333,6.667 L28.333,10.000 L30.000,10.000 L30.000,6.667 ZM31.667,20.833 C31.667,21.293 31.293,21.666 30.833,21.666 L27.500,21.666 C27.040,21.666 26.667,21.293 26.667,20.833 L26.667,15.833 C26.667,15.373 27.040,15.000 27.500,15.000 L30.833,15.000 C31.293,15.000 31.667,15.373 31.667,15.833 L31.667,20.833 ZM30.000,16.667 L28.333,16.667 L28.333,20.000 L30.000,20.000 L30.000,16.667 ZM25.592,40.242 C25.742,40.400 25.833,40.617 25.833,40.833 C25.833,41.050 25.742,41.267 25.592,41.425 C25.433,41.575 25.217,41.667 25.000,41.667 C24.783,41.667 24.567,41.575 24.408,41.425 C24.258,41.267 24.167,41.050 24.167,40.833 C24.167,40.617 24.258,40.400 24.408,40.242 C24.725,39.933 25.275,39.933 25.592,40.242 ZM20.833,45.000 C20.373,45.000 20.000,44.626 20.000,44.166 L20.000,36.666 L17.500,36.666 C17.040,36.666 16.667,36.293 16.667,35.833 C16.667,35.373 17.040,35.000 17.500,35.000 L32.500,35.000 C32.960,35.000 33.333,35.373 33.333,35.833 C33.333,36.293 32.960,36.666 32.500,36.666 L30.000,36.666 L30.000,44.166 C30.000,44.626 29.626,45.000 29.167,45.000 C28.707,45.000 28.333,44.626 28.333,44.166 L28.333,36.666 L21.667,36.666 L21.667,44.166 C21.667,44.626 21.293,45.000 20.833,45.000 ZM35.833,45.000 C35.373,45.000 35.000,44.626 35.000,44.166 L35.000,1.666 L15.000,1.666 L15.000,44.166 C15.000,44.626 14.627,45.000 14.167,45.000 C13.707,45.000 13.333,44.626 13.333,44.166 L13.333,0.833 C13.333,0.373 13.707,-0.000 14.167,-0.000 L35.833,-0.000 C36.293,-0.000 36.667,0.373 36.667,0.833 L36.667,44.166 C36.667,44.626 36.293,45.000 35.833,45.000 ZM10.833,11.667 L1.667,11.667 L1.667,27.500 C1.667,27.960 1.293,28.333 0.833,28.333 C0.373,28.333 -0.000,27.960 -0.000,27.500 L-0.000,10.833 C-0.000,10.373 0.373,10.000 0.833,10.000 L10.833,10.000 C11.293,10.000 11.667,10.373 11.667,10.833 C11.667,11.293 11.293,11.667 10.833,11.667 ZM4.167,30.000 C8.286,30.000 8.333,40.725 8.333,40.833 C8.333,42.846 6.899,44.528 5.000,44.916 L5.000,49.167 C5.000,49.627 4.626,50.000 4.167,50.000 C3.707,50.000 3.333,49.627 3.333,49.167 L3.333,44.916 C1.434,44.528 -0.000,42.846 -0.000,40.833 C-0.000,40.725 0.047,30.000 4.167,30.000 ZM4.167,43.333 C5.545,43.333 6.667,42.211 6.667,40.833 C6.667,36.682 5.552,31.666 4.167,31.666 C2.782,31.666 1.667,36.682 1.667,40.833 C1.667,42.211 2.788,43.333 4.167,43.333 ZM9.167,21.666 L5.833,21.666 C5.373,21.666 5.000,21.293 5.000,20.833 L5.000,15.833 C5.000,15.373 5.373,15.000 5.833,15.000 L9.167,15.000 C9.627,15.000 10.000,15.373 10.000,15.833 L10.000,20.833 C10.000,21.293 9.627,21.666 9.167,21.666 ZM8.333,16.667 L6.667,16.667 L6.667,20.000 L8.333,20.000 L8.333,20.000 L8.333,16.667 ZM6.667,27.500 C6.667,27.960 6.293,28.333 5.833,28.333 C5.373,28.333 5.000,27.960 5.000,27.500 L5.000,25.833 C5.000,25.373 5.373,25.000 5.833,25.000 L9.167,25.000 C9.627,25.000 10.000,25.373 10.000,25.833 L10.000,30.833 C10.000,31.293 9.627,31.667 9.167,31.667 C8.707,31.667 8.333,31.293 8.333,30.833 L8.333,26.667 L6.667,26.667 L6.667,27.500 Z" class="cls-1"/>
</svg>
