<svg width="407" height="355" viewBox="0 0 407 355" fill="none" xmlns="http://www.w3.org/2000/svg">
<path opacity="0.2" d="M368.461 127.656H344.97V139.835H368.461V127.656Z" fill="#6C63FF"/>
<path opacity="0.2" d="M370.268 142.541H346.777V154.72H370.268V142.541Z" fill="#6C63FF"/>
<path opacity="0.2" d="M350.843 39.244H327.352V51.4231H350.843V39.244Z" fill="#6C63FF"/>
<path opacity="0.2" d="M367.558 53.2275H344.067V65.4066H367.558V53.2275Z" fill="#6C63FF"/>
<path opacity="0.2" d="M322.383 40.1461H298.892V52.3253H322.383V40.1461Z" fill="#6C63FF"/>
<path opacity="0.2" d="M397.825 67.2109H374.334V79.3901H397.825V67.2109Z" fill="#6C63FF"/>
<path opacity="0.2" d="M369.365 68.1131H345.874V80.2923H369.365V68.1131Z" fill="#6C63FF"/>
<path opacity="0.2" d="M339.097 54.1296H315.606V66.3087H339.097V54.1296Z" fill="#6C63FF"/>
<path opacity="0.2" d="M396.47 161.036H372.979V173.215H396.47V161.036Z" fill="#6C63FF"/>
<path opacity="0.2" d="M368.009 161.938H344.518V174.117H368.009V161.938Z" fill="#6C63FF"/>
<path d="M59.0663 124.498C59.0663 124.498 92.1751 157.558 73.4862 206.595C54.7973 255.632 105.52 337.245 105.52 337.245C105.52 337.245 104.978 337.164 103.97 336.988C35.9729 325.003 2.18644 247.35 40.016 189.679C54.0564 168.212 65.5941 143.056 59.0663 124.498Z" fill="#A8AEB2"/>
<path d="M59.0663 124.498C59.0663 124.498 77.7552 165.023 59.0663 198.078C40.3774 231.133 55.8634 323.93 105.524 337.245" fill="#A8AEB2"/>
<path d="M59.0663 124.498C59.0663 124.498 77.7552 165.023 59.0663 198.078C40.3774 231.133 55.8634 323.93 105.524 337.245" stroke="#535461" stroke-width="2" stroke-miterlimit="10"/>
<path opacity="0.2" d="M23.7757 128.107H0.284668V140.286H23.7757V128.107Z" fill="#6C63FF"/>
<path opacity="0.2" d="M40.4903 142.09H16.9993V154.269H40.4903V142.09Z" fill="#6C63FF"/>
<path opacity="0.2" d="M167.432 0H143.941V12.1792H167.432V0Z" fill="#6C63FF"/>
<path opacity="0.2" d="M352.65 224.638H329.159V236.817H352.65V224.638Z" fill="#6C63FF"/>
<path opacity="0.2" d="M42.2974 156.976H18.8064V169.155H42.2974V156.976Z" fill="#6C63FF"/>
<path opacity="0.2" d="M184.147 13.9835H160.656V26.1626H184.147V13.9835Z" fill="#6C63FF"/>
<path opacity="0.2" d="M98.3143 96.5311H74.8232V108.71H98.3143V96.5311Z" fill="#6C63FF"/>
<path opacity="0.2" d="M115.029 110.515H91.5381V122.694H115.029V110.515Z" fill="#6C63FF"/>
<path opacity="0.2" d="M159.753 102.846H136.261V115.025H159.753V102.846Z" fill="#6C63FF"/>
<path opacity="0.2" d="M116.836 125.4H93.3452V137.579H116.836V125.4Z" fill="#6C63FF"/>
<path opacity="0.2" d="M384.273 224.638H360.781V236.817H384.273V224.638Z" fill="#6C63FF"/>
<path d="M325.554 176.422C324.033 167.97 323.1 159.422 322.762 150.841C322.462 143.774 319.98 136.973 315.656 131.37C311.332 125.767 305.379 121.637 298.611 119.545C296.145 118.787 293.43 118.079 290.43 117.443C264.138 111.868 256.151 116.735 255.243 117.376C254.474 115.98 253.806 114.531 253.242 113.041C253.197 112.887 253.156 112.734 253.111 112.59C258.315 107.049 261.485 99.9112 262.106 92.3406C266.492 87.902 269.053 82.5432 269.053 76.7739C269.053 71.812 267.156 67.1568 263.836 63.1287V55.2889C263.836 46.2482 260.239 37.5777 253.837 31.185C247.434 24.7922 238.751 21.2008 229.697 21.2008H226.928C222.445 21.2008 218.005 22.0825 213.863 23.7956C209.721 25.5087 205.958 28.0196 202.788 31.185C199.618 34.3504 197.103 38.1082 195.388 42.244C193.672 46.3797 192.789 50.8124 192.789 55.2889V63.7376C189.776 67.6214 188.068 72.0556 188.068 76.7648C188.068 82.4124 190.526 87.6629 194.745 92.0474C195.322 99.8954 198.637 107.293 204.114 112.95C204.3 114.232 204.489 115.607 204.674 117.06L157.647 126.979C157.647 126.979 139.514 127.723 127.832 151.788C117.952 172.173 98.2918 224.543 92.4687 240.132C91.4161 242.956 90.8198 244.576 90.8198 244.576C90.8198 244.576 91.0141 244.382 91.38 244.048L90.8198 245.568C90.8198 245.568 91.1044 245.279 91.6465 244.806C90.8243 251.328 90.7069 262.529 99.263 263.922C106.437 265.091 124.922 265.573 138.886 265.767H139.853C149.109 265.889 156.152 265.889 156.152 265.889V265.767H306.332V264.229C306.334 262.834 306.052 261.453 305.505 260.169L305.713 259.917C306.517 260.976 307.051 262.215 307.272 263.525C307.254 263.653 307.23 263.779 307.199 263.904L307.29 263.674C307.325 264.084 307.294 264.497 307.199 264.897C307.199 264.897 326.466 215.328 326.259 185.728C326.314 182.611 326.078 179.495 325.554 176.422ZM205.456 123.758C205.207 122.344 205.047 120.916 204.977 119.482C204.977 119.482 204.977 119.455 204.977 119.442C205.144 120.835 205.307 122.279 205.456 123.758ZM147.081 230.231V242.045L139.672 243.628L147.081 230.231Z" fill="url(#paint0_linear)"/>
<path d="M227.551 25.9687C236.605 25.9687 245.289 29.5601 251.691 35.9529C258.093 42.3456 261.69 51.0161 261.69 60.0568V74.5996H193.412V60.0568C193.412 51.0161 197.009 42.3456 203.411 35.9529C209.814 29.5601 218.497 25.9687 227.551 25.9687Z" fill="#E54E61"/>
<path d="M227.791 106.067C249.282 106.067 266.705 94.1132 266.705 79.3675C266.705 64.6218 249.282 52.6681 227.791 52.6681C206.299 52.6681 188.877 64.6218 188.877 79.3675C188.877 94.1132 206.299 106.067 227.791 106.067Z" fill="#E14B5A"/>
<path d="M202.845 105.232C202.845 105.232 210.976 147.666 202.845 159.109C194.713 170.553 227.691 175.082 227.691 175.082L261.825 162.686L266.6 132.171C266.6 132.171 245.82 120.488 250.125 96.8875L202.845 105.232Z" fill="#F7C4A7"/>
<path d="M303.594 248.27C303.594 248.27 305.745 257.567 294.044 259.236C287.136 260.25 280.11 260.167 273.228 258.988L270.648 235.635H297.866L303.594 248.27Z" fill="#F7C4A7"/>
<path d="M96.9907 236.37C96.9907 236.37 91.8227 257.341 103.523 259.236C115.223 261.13 158.185 261.144 158.185 261.144V236.334L138.732 240.484L120.473 223L96.9907 236.37Z" fill="#F7C4A7"/>
<path opacity="0.1" d="M205.357 118.941L159.635 128.594C159.635 128.594 142.207 129.311 130.985 152.433C119.764 175.556 95.4097 241.594 95.4097 241.594C95.4097 241.594 116.19 220.614 140.535 243.024L156.771 213.704L153.189 260.192H278.992V238.256C278.992 238.256 305.252 252.321 303.346 260.187C303.346 260.187 325.82 202.368 320.964 176.093C319.502 167.97 318.606 159.755 318.281 151.509C317.994 144.717 315.609 138.18 311.453 132.795C307.297 127.411 301.574 123.443 295.07 121.435C292.703 120.709 290.101 120.028 287.209 119.419C260.231 113.699 253.328 119.419 253.328 119.419C253.328 119.419 248.101 136.398 248.196 144.093C248.314 153.985 234.111 160.544 234.111 160.544C234.111 160.544 213.1 155.537 212.147 151.486C211.193 147.436 203.676 123.709 205.357 118.941Z" fill="black"/>
<path d="M205.357 117.989L159.635 127.642C159.635 127.642 142.207 128.359 130.985 151.482C119.764 174.604 95.4053 240.651 95.4053 240.651C95.4053 240.651 116.186 219.671 140.531 242.081L156.767 212.761L153.184 259.236H278.992V237.304C278.992 237.304 305.252 251.369 303.346 259.236C303.346 259.236 325.821 201.416 320.964 175.141C319.502 167.018 318.606 158.804 318.281 150.557C317.994 143.765 315.609 137.228 311.453 131.844C307.297 126.459 301.575 122.491 295.07 120.483C292.703 119.757 290.101 119.076 287.209 118.467C260.231 112.747 253.328 118.467 253.328 118.467C253.328 118.467 248.101 135.446 248.196 143.141C248.314 153.033 234.111 159.592 234.111 159.592C234.111 159.592 213.1 154.585 212.147 150.534C211.193 146.484 203.676 122.757 205.357 117.989Z" fill="#394955"/>
<path opacity="0.1" d="M252.077 115.964C250.156 110.534 249.726 104.691 250.83 99.0391L203.55 107.38C203.55 107.38 204.232 110.948 205.004 116.293C208.059 119.458 211.727 121.97 215.785 123.675C219.842 125.381 224.205 126.245 228.607 126.214C233.009 126.183 237.359 125.258 241.392 123.496C245.426 121.734 249.058 119.171 252.068 115.964H252.077Z" fill="black"/>
<path d="M260.141 91.6459C260.103 100.153 256.72 108.304 250.719 114.343C244.718 120.381 236.581 123.823 228.062 123.926C219.543 124.029 211.325 120.785 205.18 114.893C199.034 109.002 195.454 100.934 195.21 92.4308C195.21 92.1692 195.21 91.9076 195.21 91.6459C195.209 85.5753 196.914 79.6261 200.132 74.4753C203.35 69.3246 207.951 65.1791 213.411 62.5107C214.384 62.0355 215.384 61.6085 216.411 61.2296C221.753 59.269 227.514 58.7341 233.126 59.6779C240.318 60.9008 246.888 64.5085 251.774 69.9185C256.66 75.3285 259.577 82.2249 260.055 89.4943C260.112 90.207 260.141 90.9242 260.141 91.6459Z" fill="#F7C4A7"/>
<g opacity="0.1">
<path opacity="0.1" d="M216.361 61.9919L216.406 61.9648C215.379 62.3438 214.38 62.7708 213.407 63.2459C207.946 65.9143 203.345 70.0598 200.127 75.2105C196.909 80.3613 195.204 86.3105 195.206 92.3812C195.206 92.6428 195.206 92.9044 195.206 93.1661C196.215 93.1388 197.208 92.9006 198.12 92.4669C206.034 88.777 210.769 77.491 212.648 69.6197C213.326 66.8004 213.962 63.6248 216.361 61.9919Z" fill="black"/>
<path opacity="0.1" d="M241.212 62.8986C238.642 61.7197 235.928 60.8841 233.139 60.4131C235.426 60.9386 237.469 62.2197 238.935 64.0489C239.654 65.025 240.25 66.0854 240.711 67.2064C236.39 65.3199 231.71 64.3932 226.994 64.4906C222.279 64.5879 217.642 65.707 213.402 67.7703C215.44 72.2315 221.76 74.6628 225.979 76.2912C230.599 78.0714 235.267 79.6998 239.983 81.1764L235.809 77.7933L245.237 79.2908C245.339 77.4173 245.116 75.5403 244.578 73.7426C246.385 75.195 248.779 75.6822 250.74 76.9001C254.412 79.2142 255.944 83.6663 257.945 87.5231C258.473 88.5425 259.097 89.5845 260.05 90.2295C259.665 84.4026 257.711 78.7876 254.396 73.9771C251.08 69.1667 246.525 65.3392 241.212 62.8986Z" fill="black"/>
</g>
<path d="M216.361 61.2567L216.406 61.2296C215.379 61.6085 214.38 62.0355 213.407 62.5107C207.946 65.1791 203.345 69.3246 200.127 74.4753C196.909 79.6261 195.204 85.5753 195.206 91.646C195.206 91.9076 195.206 92.1692 195.206 92.4308C196.215 92.4036 197.208 92.1654 198.12 91.7316C206.034 88.0418 210.769 76.7558 212.648 68.8844C213.326 66.0832 213.962 62.8941 216.361 61.2567Z" fill="#632652"/>
<path d="M241.212 62.1678C238.642 60.989 235.928 60.1533 233.139 59.6824C235.426 60.2078 237.469 61.4889 238.935 63.3181C239.654 64.2942 240.25 65.3546 240.711 66.4756C236.39 64.5891 231.71 63.6624 226.994 63.7598C222.279 63.8571 217.642 64.9762 213.402 67.0395C215.44 71.5007 221.76 73.932 225.979 75.5604C230.599 77.3407 235.267 78.9691 239.983 80.4456L235.809 77.0625L245.237 78.5601C245.339 76.6865 245.116 74.8096 244.578 73.0118C246.385 74.4643 248.779 74.9514 250.74 76.1694C254.412 78.4834 255.944 82.9356 257.945 86.7923C258.473 87.8117 259.097 88.8537 260.05 89.4988C259.665 83.6718 257.711 78.0568 254.396 73.2464C251.08 68.4359 246.525 64.6084 241.212 62.1678Z" fill="#632652"/>
<path opacity="0.1" d="M191.501 86.3006C191.501 86.3006 224.931 44.8013 263.605 86.3006L260.262 77.0039C260.262 77.0039 242.116 50.5435 229.227 56.2542C216.339 61.9649 203.681 66.0291 203.681 66.0291L191.501 86.3006Z" fill="black"/>
<path d="M191.501 85.5654C191.501 85.5654 224.931 44.066 263.605 85.5654L260.262 76.2687C260.262 76.2687 242.116 49.8083 229.227 55.519C216.339 61.2296 203.681 65.2939 203.681 65.2939L191.501 85.5654Z" fill="#E54E61"/>
<path opacity="0.1" d="M164.044 174.965C164.044 174.965 156.884 194.037 166.908 211.2C176.932 228.364 158.076 235.518 158.076 235.518" fill="black"/>
<path opacity="0.1" d="M280.076 157.801C280.076 157.801 292.49 173.535 284.372 187.6C276.254 201.664 276.733 235.518 276.733 235.518" fill="black"/>
<path d="M153.062 249.583H291.058C294.098 249.583 297.013 250.788 299.162 252.934C301.312 255.081 302.519 257.991 302.519 261.026H141.606C141.606 257.992 142.813 255.082 144.961 252.936C147.109 250.79 150.023 249.584 153.062 249.583Z" fill="#535461"/>
<path d="M167.102 170.91H277.022C279.336 170.91 281.627 171.365 283.765 172.249C285.902 173.133 287.844 174.429 289.48 176.062C291.116 177.696 292.414 179.635 293.299 181.77C294.185 183.904 294.641 186.192 294.641 188.502V252.203H149.484V188.502C149.484 183.836 151.34 179.362 154.644 176.062C157.948 172.763 162.43 170.91 167.102 170.91Z" fill="#717B84"/>
<path d="M221.941 223.718C226.688 223.718 230.537 219.874 230.537 215.134C230.537 210.393 226.688 206.55 221.941 206.55C217.193 206.55 213.344 210.393 213.344 215.134C213.344 219.874 217.193 223.718 221.941 223.718Z" fill="white"/>
<path opacity="0.1" d="M193.412 66.8501C193.412 66.8501 226.264 34.0656 261.694 66.2501" stroke="black" stroke-miterlimit="10"/>
<path d="M269.993 64.7615H266.695V83.4317H269.993V64.7615Z" fill="#6A5C99"/>
<path d="M262.295 76.8415C265.31 76.8415 268.201 78.0372 270.332 80.1656C272.464 82.294 273.661 85.1807 273.661 88.1907V88.9214C273.661 91.9314 272.464 94.8181 270.332 96.9465C268.201 99.0749 265.31 100.271 262.295 100.271V76.8415Z" fill="#2EC4B6"/>
<path d="M265.227 78.3075C265.227 76.8925 264.078 75.7454 262.661 75.7454C261.244 75.7454 260.095 76.8925 260.095 78.3075V98.8091C260.095 100.224 261.244 101.371 262.661 101.371C264.078 101.371 265.227 100.224 265.227 98.8091V78.3075Z" fill="#6A5C99"/>
<path d="M184.775 83.7971H188.073V65.1269H184.775V83.7971Z" fill="#6A5C99"/>
<path d="M192.473 100.636C189.458 100.636 186.567 99.4403 184.436 97.3119C182.304 95.1835 181.107 92.2968 181.107 89.2868V88.5561C181.107 87.0657 181.401 85.5899 181.972 84.2129C182.543 82.836 183.38 81.5849 184.436 80.531C185.491 79.4771 186.744 78.6411 188.123 78.0708C189.502 77.5004 190.98 77.2069 192.473 77.2069V100.636Z" fill="#2EC4B6"/>
<path d="M189.541 99.1699C189.541 100.585 190.69 101.732 192.107 101.732C193.524 101.732 194.673 100.585 194.673 99.1699V78.6683C194.673 77.2533 193.524 76.1062 192.107 76.1062C190.69 76.1062 189.541 77.2533 189.541 78.6683V99.1699Z" fill="#6A5C99"/>
<path d="M266.307 44.8058C261.839 35.5316 252.108 24.3177 231.134 23.4201V23.393H230.881L223.449 23.7448V23.7809C202.615 24.7372 192.929 35.9105 188.475 45.1531C185.508 51.4188 183.933 58.2508 183.858 65.1811L186.424 65.1179L188.99 65.0593C189.101 58.8893 190.522 52.8132 193.159 47.2326C198.815 35.6308 209.224 29.4645 224.091 28.8917L230.664 28.5263C245.54 29.0947 255.953 35.2699 261.604 46.8672C264.246 52.4499 265.671 58.5293 265.783 64.7029L268.349 64.7616L270.915 64.8247C270.841 57.8982 269.269 51.0694 266.307 44.8058Z" fill="#2EC4B6"/>
<path d="M383.531 261.175H33.5559V355H383.531V261.175Z" fill="#A8AEB2"/>
<path opacity="0.1" d="M383.531 267.49H33.5559V279.67H383.531V267.49Z" fill="black"/>
<path d="M407 259.822H10.0786V272.001H407V259.822Z" fill="#D6D6E3"/>
<defs>
<linearGradient id="paint0_linear" x1="208.541" y1="265.912" x2="208.541" y2="21.2008" gradientUnits="userSpaceOnUse">
<stop stop-color="#808080" stop-opacity="0.25"/>
<stop offset="0.54" stop-color="#808080" stop-opacity="0.12"/>
<stop offset="1" stop-color="#808080" stop-opacity="0.1"/>
</linearGradient>
</defs>
</svg>
