<svg width="570" height="534" viewBox="0 0 610 610" xmlns="http://www.w3.org/2000/svg" fill-rule="evenodd" clip-rule="evenodd" stroke-linejoin="round" stroke-miterlimit="2"><path fill="#ecf3fd" d="M298.36 9h277.97v403.794H298.36z"/><path fill="#1dc8cc" d="M16 502.393h83.226v98.948H16zm107.543-74.85h83.226v173.798h-83.226zm107.537-86.079h83.226v259.882H231.08z"/><path fill="#de8e68" d="M154.158 434.947h9.667v7.085h-9.667zm106.05-91.631h9.666v7.085h-9.666z"/><path d="M219.862 233.405c5.789 0 52.23 6.559 72.547 16.995-2.796 13.609-21.064 93.773-21.064 93.773H259.97s-4.283-67.488-5.21-66.926c-6.152 3.166-30.574 11.154-56.674 11.542" fill="#5598f0" fill-rule="nonzero"/><path d="M219.862 233.405L164.183 435.88h-10.025V233.405" fill="#6ea4ea" fill-rule="nonzero"/><path d="M230.171 148.31c2.808 1.221 12.428 9.261 14.147 12.155 15.71-19.559 41.62-39.297 43.738-41.578 2.118-2.28 2.778-14.986 2.778-17.764 0-2.779 3.832-10.182 7.525-10.182v33.312s-43.355 60.807-50.492 60.807c-4.631 0-27.501-10.048-30.679-13.087" fill="#de8e68" fill-rule="nonzero"/><path d="M194.862 137.115c5.72-9.261 38.783 5.082 38.783 9.51 0 4.429-12.26 24.821-17.754 24.532-4.376-.209-26.95-24.427-21.029-34.042z" fill="#766df4" fill-rule="nonzero"/><path d="M186.834 123.68c42.012 0 39.662 104.608 33.028 109.725-6.633 5.117-61.08 7.6-66.057 0-4.978-7.6-6.906-109.725 33.029-109.725z" fill="#766df4" fill-rule="nonzero"/><path d="M141.394 156.703c-7.46 2.344-26.655 38.534-26.655 44.056 0 11.577 39.083 62.567 44.055 62.567 2.073-3.595 5.39-11.05 5.39-11.05s-23.478-43.784-27.785-49.445c3.728-3.473 17.261-21.683 19.472-27.345 2.211-5.66 1.384-17.816 1.384-17.816l-15.86-.967z" fill="#de8e68" fill-rule="nonzero"/><path d="M168.2 134.875c9.528 5.21-3.038 38.968-7.46 39.245-4.423.278-25.43-10.946-25.43-16.445 0-4.422 22.98-28.235 32.89-22.8z" fill="#766df4" fill-rule="nonzero"/><path d="M154.158 440.532v8.567h25.816v-3.108l-15.675-5.459h-10.141zm105.627-90.912v8.566h25.822v-3.102l-15.675-5.464h-10.147z" fill-rule="nonzero"/><path fill="#1dc8cc" d="M298.36 9h277.97v26.007H298.36z"/><path fill="#1bb7bb" d="M362.553 67.764H596v66.515H362.553z"/><path fill="#f9f9f9" d="M376.184 80.637h208.708v6.026H376.184zm0 14.356h208.708v6.025H376.184zm0 14.361h208.708v6.025H376.184z"/><path fill="#1bb7bb" d="M362.553 161.01H596v66.514H362.553z"/><circle cx="759.42" cy="409.28" r="34.22" fill="#f9f9f9" transform="translate(-45.936 -42.644) scale(.57884)"/><path fill="#f9f9f9" d="M428.072 174.456h151.975v19.16H428.072zm0 25.654h151.975v7.04H428.072z"/><path fill="#fff" d="M325.53 256.374h219.26v107.873H325.53z"/><path d="M197.259 103.096h-16.642v23.611c0 5.864 16.642 5.962 16.642 0v-23.61z" fill="#d37c59" fill-rule="nonzero"/><path d="M209.42 92.272c-2.929-12.543-12.243-21.087-20.804-19.102-7.334 1.737-11.727 10.605-10.998 21.006a5.466 5.466 0 00-3.94 5.239c0 2.988 2.457 5.448 5.445 5.453.334-.004.668-.036.996-.099 3.97 9.563 11.814 15.519 19.102 13.817 8.56-1.985 13.128-13.776 10.199-26.314z" fill="#de8e68" fill-rule="nonzero"/><path d="M181.867 98.136c2.188 0 2.57-3.022 2.57-5.702 0-3.589 3.41-6.83 5.51-7.444 3.804-1.1 5.743-1.354 8.047-2.605 2.303-1.25 5.047-3.131 5.047-3.131a32.257 32.257 0 012.773 3.896c2.113-.58 13.18-3.219 13.18-11.149 0-5.21-4.376-5.893-6.367-7.525-2.119-1.736-1.21-6.987-6.946-6.987-5.14 0-7.67 5.401-10.958 7.48-3.976 2.517-11.78.491-16.92 5.788-2.494 2.57-3.079 8.896-4.63 11.212-2.119 3.137-5.789 4.052-5.789 8.839 0 3.513 2.982 9.446 6.57 10.315 0-3.473 1.268-6.796 3.838-6.796 2.796 0 .863 3.809 4.075 3.809z" fill="#333" fill-rule="nonzero"/></svg>