<svg xmlns="http://www.w3.org/2000/svg" xmlns:xlink="http://www.w3.org/1999/xlink" preserveAspectRatio="xMidYMid" width="110" height="30" viewBox="0 0 96 30">
  <defs>
    <style>
      .cls-1 {
        fill: #212529;
        font: bold 16px sans-serif;
      }

      .cls-1, .cls-3 {
        fill-rule: evenodd;
      }

      .cls-2 {
        fill: #1dc8cc;
      }

      .cls-3 {
        fill: #fff;
      }
    </style>
  </defs>
  <g>
  <text x="33" y="21" class="cls-1">skillPark </text>
    <circle cx="15" cy="15" r="15" class="cls-2"/>
    <path d="M23.411,16.110 C23.299,16.110 23.191,16.099 23.086,16.077 C22.363,15.927 21.821,15.287 21.821,14.521 C21.821,13.968 22.104,13.481 22.532,13.197 C22.783,13.028 23.085,12.931 23.411,12.931 C24.288,12.931 25.000,13.643 25.000,14.521 C25.000,15.398 24.288,16.110 23.411,16.110 ZM21.460,11.168 C21.454,11.263 21.436,11.355 21.406,11.447 C21.394,11.483 21.384,11.518 21.368,11.554 C21.314,11.674 21.246,11.788 21.147,11.887 L19.064,13.970 L19.228,14.183 L22.319,18.222 C22.406,18.335 22.462,18.461 22.499,18.590 C22.511,18.632 22.512,18.673 22.519,18.716 C22.529,18.777 22.549,18.838 22.549,18.900 C22.549,18.922 22.535,18.942 22.534,18.964 C22.528,19.070 22.500,19.169 22.464,19.270 C22.447,19.318 22.440,19.366 22.416,19.412 C22.343,19.552 22.246,19.682 22.112,19.785 C22.111,19.786 22.110,19.787 22.109,19.787 C22.108,19.788 22.107,19.789 22.106,19.790 C21.978,19.886 21.835,19.940 21.688,19.974 C21.669,19.977 21.649,19.981 21.629,19.985 C21.570,19.995 21.512,20.014 21.453,20.015 C21.447,20.015 21.440,20.015 21.434,20.015 C21.432,20.015 21.430,20.015 21.428,20.015 C21.297,20.015 21.169,19.983 21.046,19.937 C21.039,19.935 21.034,19.931 21.027,19.928 C20.956,19.900 20.883,19.873 20.818,19.830 C20.718,19.763 20.626,19.679 20.548,19.578 L17.152,15.142 C16.881,14.790 16.749,14.368 16.749,13.949 C16.749,13.442 16.943,12.936 17.323,12.557 L18.456,11.424 L19.570,10.310 C19.608,10.272 19.649,10.236 19.691,10.205 C19.744,10.165 19.804,10.145 19.862,10.116 C19.900,10.097 19.934,10.072 19.973,10.058 C20.096,10.012 20.223,9.985 20.352,9.984 C20.640,9.982 20.928,10.090 21.147,10.310 C21.256,10.419 21.338,10.544 21.392,10.679 L21.392,10.679 C21.441,10.800 21.461,10.928 21.465,11.057 C21.466,11.071 21.473,11.084 21.473,11.099 C21.473,11.122 21.461,11.144 21.460,11.168 ZM19.932,8.934 C19.915,8.983 19.908,9.032 19.884,9.078 C19.810,9.218 19.713,9.348 19.579,9.451 L15.143,12.846 C14.791,13.118 14.369,13.251 13.950,13.251 C13.442,13.251 12.937,13.056 12.558,12.676 L11.425,11.543 L10.311,10.428 C10.093,10.211 9.984,9.926 9.984,9.640 C9.984,9.588 10.006,9.539 10.013,9.488 C10.029,9.376 10.054,9.267 10.103,9.163 C10.152,9.050 10.218,8.944 10.311,8.852 C10.529,8.634 10.814,8.525 11.100,8.525 C11.240,8.525 11.381,8.553 11.513,8.606 C11.554,8.622 11.586,8.656 11.625,8.677 C11.710,8.723 11.797,8.764 11.870,8.834 C11.876,8.839 11.882,8.846 11.888,8.852 L13.971,10.935 L14.184,10.771 L18.222,7.680 C18.336,7.593 18.462,7.537 18.591,7.500 C18.633,7.488 18.674,7.487 18.716,7.480 C18.777,7.469 18.838,7.450 18.900,7.450 C18.922,7.450 18.942,7.464 18.965,7.465 C19.069,7.471 19.166,7.498 19.265,7.533 C19.314,7.550 19.364,7.558 19.411,7.582 C19.538,7.648 19.652,7.739 19.749,7.855 C19.758,7.866 19.773,7.870 19.782,7.882 C19.782,7.882 19.782,7.882 19.783,7.882 C19.783,7.883 19.784,7.884 19.785,7.885 C19.785,7.885 19.786,7.887 19.786,7.887 C19.873,8.001 19.929,8.127 19.966,8.256 C19.978,8.297 19.979,8.338 19.986,8.380 C19.997,8.442 20.016,8.503 20.016,8.565 C20.016,8.587 20.003,8.607 20.001,8.629 C19.995,8.735 19.967,8.834 19.932,8.934 ZM14.522,8.178 C13.968,8.178 13.482,7.896 13.198,7.468 C13.197,7.467 13.197,7.467 13.197,7.466 C13.148,7.392 13.105,7.315 13.068,7.233 C13.059,7.212 13.062,7.186 13.054,7.165 C12.987,6.996 12.943,6.818 12.938,6.626 C12.938,6.617 12.932,6.609 12.932,6.600 C12.932,6.596 12.932,6.592 12.932,6.588 C12.932,5.711 13.644,4.999 14.522,4.999 C14.539,4.999 14.556,4.999 14.573,5.000 C14.694,5.004 14.801,5.049 14.913,5.078 C14.994,5.099 15.080,5.101 15.155,5.134 C15.271,5.185 15.365,5.267 15.465,5.343 C15.526,5.389 15.598,5.420 15.652,5.474 C15.746,5.570 15.808,5.690 15.876,5.806 C15.910,5.865 15.961,5.912 15.987,5.976 C16.063,6.158 16.103,6.357 16.106,6.566 C16.106,6.574 16.111,6.580 16.111,6.588 C16.111,6.700 16.100,6.808 16.077,6.913 C15.928,7.636 15.288,8.178 14.522,8.178 ZM12.852,14.865 C12.982,15.035 13.078,15.221 13.144,15.415 C13.167,15.481 13.167,15.550 13.182,15.618 C13.210,15.742 13.247,15.865 13.250,15.990 C13.251,16.010 13.251,16.029 13.251,16.049 C13.251,16.556 13.057,17.062 12.677,17.441 L11.544,18.574 L10.430,19.688 C10.317,19.801 10.187,19.882 10.048,19.936 C10.048,19.936 10.048,19.936 10.048,19.936 C9.917,19.987 9.779,20.015 9.641,20.015 L9.641,20.015 C9.500,20.015 9.359,19.988 9.226,19.935 C9.185,19.918 9.152,19.883 9.113,19.861 C9.028,19.815 8.941,19.774 8.868,19.704 C8.863,19.698 8.858,19.694 8.853,19.688 C8.641,19.476 8.536,19.199 8.531,18.921 C8.530,18.914 8.526,18.907 8.526,18.900 C8.526,18.900 8.526,18.900 8.526,18.900 C8.526,18.614 8.635,18.329 8.853,18.111 L10.936,16.028 L10.772,15.815 L7.680,11.776 C7.594,11.663 7.538,11.537 7.501,11.408 C7.489,11.366 7.488,11.325 7.481,11.283 C7.470,11.221 7.451,11.161 7.451,11.099 C7.451,11.076 7.464,11.056 7.466,11.034 C7.472,10.929 7.500,10.830 7.535,10.730 C7.553,10.681 7.560,10.632 7.584,10.586 C7.657,10.445 7.754,10.316 7.888,10.213 C8.001,10.126 8.127,10.070 8.256,10.033 C8.298,10.021 8.339,10.020 8.382,10.013 C8.443,10.002 8.504,9.983 8.565,9.983 C8.565,9.983 8.565,9.983 8.565,9.983 C8.566,9.983 8.566,9.983 8.566,9.983 C8.588,9.983 8.608,9.996 8.631,9.997 C8.734,10.003 8.830,10.031 8.928,10.065 C8.978,10.082 9.028,10.090 9.075,10.114 C9.199,10.178 9.308,10.268 9.404,10.379 C9.416,10.392 9.434,10.397 9.445,10.412 C9.445,10.412 9.446,10.413 9.446,10.413 C9.446,10.413 9.446,10.413 9.446,10.413 C9.448,10.415 9.450,10.418 9.451,10.420 L12.848,14.856 C12.850,14.859 12.850,14.862 12.852,14.865 ZM8.178,15.477 C8.178,16.030 7.896,16.517 7.468,16.801 C7.217,16.970 6.915,17.067 6.589,17.067 C6.370,17.067 6.162,17.022 5.972,16.942 C5.972,16.942 5.972,16.942 5.972,16.942 C5.906,16.914 5.858,16.861 5.796,16.824 C5.795,16.823 5.793,16.822 5.791,16.821 C5.679,16.754 5.561,16.695 5.469,16.603 C5.468,16.603 5.468,16.603 5.468,16.603 C5.414,16.549 5.384,16.474 5.338,16.412 C5.337,16.411 5.337,16.410 5.336,16.409 C5.261,16.309 5.177,16.216 5.128,16.100 C5.128,16.100 5.128,16.100 5.128,16.100 C5.096,16.027 5.098,15.940 5.077,15.861 C5.047,15.740 5.001,15.624 5.000,15.493 C5.000,15.488 5.000,15.482 5.000,15.477 C5.000,14.600 5.711,13.888 6.589,13.888 C6.701,13.888 6.809,13.899 6.914,13.921 C7.637,14.071 8.178,14.711 8.178,15.477 ZM14.857,17.152 C15.209,16.881 15.631,16.748 16.050,16.748 C16.557,16.748 17.063,16.942 17.442,17.322 L18.575,18.455 L19.689,19.569 C19.820,19.700 19.898,19.857 19.951,20.022 C19.986,20.132 20.016,20.243 20.016,20.358 C20.016,20.358 20.016,20.358 20.016,20.358 C20.016,20.643 19.907,20.929 19.689,21.146 C19.471,21.364 19.186,21.473 18.900,21.473 C18.759,21.473 18.618,21.445 18.485,21.392 C18.446,21.376 18.416,21.343 18.379,21.323 C18.291,21.276 18.201,21.233 18.126,21.160 C18.121,21.155 18.117,21.151 18.112,21.146 L16.029,19.063 C15.958,19.118 15.882,19.166 15.816,19.227 L11.777,22.319 C11.775,22.321 11.773,22.322 11.770,22.324 C11.770,22.324 11.770,22.324 11.770,22.324 C11.769,22.325 11.768,22.325 11.767,22.326 C11.656,22.409 11.533,22.463 11.406,22.499 C11.367,22.510 11.329,22.511 11.289,22.518 C11.226,22.529 11.164,22.548 11.100,22.548 C11.100,22.548 11.100,22.548 11.100,22.548 C11.100,22.548 11.100,22.548 11.100,22.548 C11.077,22.548 11.057,22.534 11.034,22.533 C10.932,22.527 10.837,22.500 10.739,22.466 C10.688,22.449 10.638,22.441 10.589,22.416 C10.467,22.353 10.358,22.264 10.263,22.154 C10.251,22.140 10.232,22.135 10.220,22.120 C10.220,22.120 10.220,22.120 10.220,22.119 C10.218,22.117 10.217,22.115 10.215,22.113 C10.215,22.112 10.214,22.111 10.214,22.111 C9.839,21.621 9.932,20.922 10.421,20.547 L14.857,17.152 ZM14.101,22.634 C14.123,22.594 14.149,22.558 14.175,22.520 C14.206,22.474 14.230,22.423 14.266,22.381 C14.318,22.321 14.378,22.270 14.438,22.217 C14.455,22.203 14.468,22.186 14.485,22.173 C14.607,22.075 14.744,22.000 14.891,21.941 C14.924,21.928 14.956,21.918 14.990,21.907 C15.145,21.856 15.306,21.821 15.478,21.821 C16.032,21.821 16.518,22.102 16.802,22.531 C16.971,22.782 17.068,23.084 17.068,23.409 C17.068,24.287 16.356,24.999 15.478,24.999 C14.601,24.999 13.889,24.287 13.889,23.409 C13.889,23.298 13.900,23.190 13.922,23.085 C13.956,22.923 14.022,22.774 14.101,22.634 Z" class="cls-3"/>
  </g>
</svg>
